<?xml version="1.0" encoding="UTF-8"?>
<svg version="1.1" xmlns="http://www.w3.org/2000/svg" width="240" height="240">
<path d="M0 0 C0.99818253 -0.00571014 1.99636505 -0.01142029 3.02479553 -0.01730347 C4.66594078 -0.01898026 4.66594078 -0.01898026 6.34024048 -0.02069092 C8.06986275 -0.02813828 8.06986275 -0.02813828 9.83442688 -0.03573608 C13.65749707 -0.05036824 17.48052577 -0.05716112 21.30361938 -0.06268311 C23.28541877 -0.0669805 25.26721815 -0.0712784 27.24901736 -0.07565761 C32.77098728 -0.0874675 38.29294714 -0.09500565 43.81492841 -0.09845281 C50.95371561 -0.10293395 58.09231137 -0.12048598 65.23104036 -0.1494534 C70.75130714 -0.17107511 76.27152008 -0.18115733 81.79182875 -0.18249393 C85.08794214 -0.18354154 88.38383449 -0.19088631 91.67991257 -0.20731354 C95.35720144 -0.22433388 99.03402214 -0.22250341 102.71133423 -0.21600342 C103.8013826 -0.2252182 104.89143097 -0.23443298 106.01451111 -0.243927 C113.24655359 -0.20380401 116.7021685 0.72854046 121.95205688 5.89044189 C122.94350539 6.96730545 123.92758279 8.05099008 124.90518188 9.14044189 C125.43248901 9.71931152 125.95979614 10.29818115 126.50308228 10.89459229 C130.41083081 15.21973651 134.08880203 19.70425552 137.73721313 24.24981689 C141.69007944 28.97537597 145.93349456 33.42584101 150.14736938 37.91778564 C153.00064967 40.96181202 155.76706197 44.07011067 158.49111938 47.23028564 C160.47058314 49.502487 162.50101359 51.72504062 164.53018188 53.95294189 C168.55664382 58.40613997 172.36143242 63.00836151 176.11221313 67.69512939 C178.09688715 70.16329763 178.09688715 70.16329763 180.35830688 72.24591064 C183.02359935 75.05605596 183.08848506 77.33872261 183.15518188 81.14044189 C181.09116029 85.30277116 178.20711023 88.40749199 175.03018188 91.76544189 C171.46293128 95.57700864 168.0409521 99.43344066 164.78018188 103.51544189 C160.72851972 108.55460595 156.38163572 113.2450996 151.95254517 117.94854736 C148.70969737 121.41105668 145.6208871 124.93331038 142.65518188 128.64044189 C138.60690562 133.69705265 134.26693844 138.41932694 129.83120728 143.13360596 C126.30159726 146.88639729 122.88704432 150.70103415 119.62002563 154.68731689 C116.49667872 157.78567703 113.49164307 158.39095749 109.19010925 158.40113831 C108.19055206 158.40822311 107.19099487 158.41530792 106.16114807 158.42260742 C105.07064651 158.42013 103.98014496 158.41765259 102.8565979 158.4151001 C101.12675659 158.42276649 101.12675659 158.42276649 99.36196899 158.43058777 C95.54428947 158.44450453 91.72679004 158.44352544 87.90908813 158.44122314 C85.92847771 158.44412696 83.94786721 158.44703525 81.96725792 158.45062989 C75.74008591 158.46172127 69.51297422 158.46216458 63.28579712 158.45611572 C56.86577085 158.45007535 50.4459637 158.46238922 44.02597481 158.48368579 C38.50992391 158.50130968 32.9939427 158.50730192 27.47786468 158.50404805 C24.18513523 158.50223628 20.89259687 158.5061754 17.59988594 158.51876259 C13.92747161 158.53107822 10.25556638 158.5243641 6.5831604 158.51275635 C5.49468307 158.52040009 4.40620575 158.52804382 3.28474426 158.53591919 C-6.0211374 158.47079962 -6.0211374 158.47079962 -9.84481812 155.14044189 C-12.27091049 151.50130333 -12.56126221 150.43910645 -11.84481812 146.14044189 C-8.17603605 140.01770627 -2.87371419 134.92167089 1.96939087 129.71954346 C4.95756272 126.49815091 7.78354835 123.19873382 10.53018188 119.76544189 C15.13857825 114.03810036 20.12781284 108.71502556 25.15127563 103.35528564 C32.14359027 95.89351471 38.63452765 88.01245908 45.15518188 80.14044189 C43.69878725 75.38288608 40.84945856 72.32937271 37.46768188 68.82794189 C36.37318243 67.66979554 35.27942831 66.51094434 34.18643188 65.35137939 C33.66049438 64.79676025 33.13455688 64.24214111 32.59268188 63.67071533 C30.27832135 61.2069905 28.07355831 58.65316404 25.86221313 56.09747314 C23.81884758 53.75485039 21.73837329 51.44770767 19.65518188 49.14044189 C15.78010911 44.84204184 11.94205468 40.51671123 8.15518188 36.14044189 C7.71271118 35.62965088 7.27024048 35.11885986 6.81436157 34.59259033 C3.72438397 31.02126969 0.65361741 27.43445881 -2.40097046 23.83282471 C-3.72008158 22.28664982 -5.05695445 20.75567359 -6.39559937 19.22637939 C-7.12134155 18.37302002 -7.84708374 17.51966064 -8.59481812 16.64044189 C-9.22903687 15.90825439 -9.86325562 15.17606689 -10.51669312 14.42169189 C-12.23907145 11.46325382 -12.21336132 9.51192971 -11.84481812 6.14044189 C-8.54720947 1.02346296 -5.90445518 0.02022805 0 0 Z " fill="#3182F0" transform="translate(34.844818115234375,40.85955810546875)"/>
<path d="M0 0 C9.21299347 9.10908753 18.10126709 18.5582196 26.1328125 28.73046875 C27.96558158 31.05032478 27.96558158 31.05032478 30.18359375 33.0859375 C32.86198094 35.908324 32.93296053 38.17875049 33 42 C30.9359784 46.16232926 28.05192835 49.26705009 24.875 52.625 C21.3077494 56.43656675 17.88577022 60.29299876 14.625 64.375 C10.57333783 69.41416406 6.22645384 74.10465771 1.79736328 78.80810547 C-1.44548452 82.27061478 -4.53429479 85.79286848 -7.5 89.5 C-11.54827626 94.55661075 -15.88824345 99.27888505 -20.32397461 103.99316406 C-23.85358462 107.7459554 -27.26813757 111.56059226 -30.53515625 115.546875 C-33.67372824 118.66033842 -36.67694265 119.2496267 -40.99871826 119.24050903 C-42.00550125 119.24325836 -43.01228424 119.24600769 -44.04957581 119.24884033 C-45.14793259 119.24164978 -46.24628937 119.23445923 -47.37792969 119.22705078 C-48.53918869 119.22734283 -49.70044769 119.22763489 -50.89689636 119.22793579 C-54.73863168 119.22654148 -58.58017352 119.2109752 -62.421875 119.1953125 C-65.08417082 119.19158273 -67.7464559 119.18863722 -70.40875244 119.18673706 C-76.70207001 119.18052279 -82.99531802 119.1641127 -89.28860497 119.14403808 C-96.45421061 119.12167743 -103.61981957 119.11068524 -110.78545141 119.10064721 C-125.52366983 119.07974642 -140.2618337 119.04457147 -155 119 C-155 118.67 -155 118.34 -155 118 C-154.3626593 118.01856049 -153.7253186 118.03712097 -153.06866455 118.0562439 C-146.38363637 118.23687009 -139.70251957 118.31729135 -133.01513672 118.34179688 C-130.52617915 118.36374592 -128.03730365 118.41052165 -125.54931641 118.48339844 C-110.8158712 119.52890459 -110.8158712 119.52890459 -97.82128906 114.00976562 C-95.17638365 111.18124055 -93.11190261 108.12303675 -91.14985657 104.79473877 C-89.20815247 101.76405501 -86.74692875 99.33529013 -84.25 96.75 C-80.08786416 92.26862654 -76.24723574 87.64291461 -72.55859375 82.765625 C-72.04425781 82.18296875 -71.52992187 81.6003125 -71 81 C-70.34 81 -69.68 81 -69 81 C-68.75636719 80.43796875 -68.51273437 79.8759375 -68.26171875 79.296875 C-66.75819064 76.55980215 -64.93300252 74.54204059 -62.8125 72.25 C-62.00425781 71.36828125 -61.19601563 70.4865625 -60.36328125 69.578125 C-59.58339844 68.72734375 -58.80351563 67.8765625 -58 67 C-56.82838939 65.67100886 -55.66126608 64.3380396 -54.5 63 C-51.10746907 59.10487189 -47.64805799 55.27217237 -44.1875 51.4375 C-41.69938313 48.66502692 -39.24932536 45.86155151 -36.8046875 43.05078125 C-34.77041859 40.73911203 -32.6977769 38.4646857 -30.625 36.1875 C-27.53363199 32.76770672 -24.57540968 29.28041476 -21.6875 25.6875 C-17.74960913 20.80839092 -13.5773544 16.20977887 -9.2487793 11.6784668 C-5.78201347 8.00650481 -2.86466324 4.16108018 0 0 Z " fill="#6EB9FB" transform="translate(185,80)"/>
<path d="M0 0 C1.00540833 -0.00137466 2.01081665 -0.00274933 3.04669189 -0.00416565 C4.14864395 -0.00057037 5.25059601 0.0030249 6.38594055 0.00672913 C8.12761002 0.00651009 8.12761002 0.00651009 9.90446472 0.00628662 C13.75158033 0.00698463 17.59864783 0.01477185 21.445755 0.02259827 C24.10947756 0.02446284 26.77319743 0.02593574 29.43692017 0.02688599 C35.73732916 0.02999509 42.03772083 0.03820282 48.33812219 0.04823548 C55.51096703 0.05940966 62.68381269 0.06491036 69.85666406 0.06993091 C84.61163033 0.08038577 99.36658299 0.09797709 114.12153625 0.12025452 C114.12153625 4.43687796 114.07969393 4.6616618 111.30513 7.51087952 C110.70950256 8.1334967 110.11387512 8.75611389 109.50019836 9.39759827 C108.85961487 10.04857483 108.21903137 10.69955139 107.55903625 11.37025452 C106.25619202 12.72890027 104.95409864 14.08826648 103.65278625 15.44837952 C103.06304016 16.05585022 102.47329407 16.66332092 101.86567688 17.28919983 C98.83751771 20.46825831 95.97762898 23.78716486 93.12153625 27.12025452 C90.99908209 29.58079218 88.8731495 32.03831117 86.74653625 34.49525452 C86.18104065 35.14888977 85.61554504 35.80252502 85.03291321 36.47596741 C81.10129308 41.01210319 77.1146026 45.49376078 73.08638 49.94447327 C69.04784896 54.4165643 65.10145868 58.96554624 61.195755 63.55384827 C60.66957581 64.17098694 60.14339661 64.78812561 59.60127258 65.42396545 C58.55616978 66.65080453 57.51293987 67.87924232 56.47187805 69.10951233 C53.49151522 72.60843376 50.41682849 75.91549229 47.12153625 79.12025452 C43.5615125 75.60521301 40.11852472 72.00417909 36.74653625 68.30775452 C36.26394348 67.78004456 35.78135071 67.25233459 35.28413391 66.70863342 C32.09810719 63.21562253 28.96128403 59.68426989 25.86372375 56.11244202 C23.80653227 53.76004816 21.71556711 51.43990486 19.62153625 49.12025452 C15.74646348 44.82185446 11.90840905 40.49652385 8.12153625 36.12025452 C7.67906555 35.6094635 7.23659485 35.09867249 6.78071594 34.57240295 C3.69073834 31.00108231 0.61997178 27.41427143 -2.43461609 23.81263733 C-3.75372721 22.26646244 -5.09060008 20.73548621 -6.429245 19.20619202 C-7.15498718 18.35283264 -7.88072937 17.49947327 -8.62846375 16.62025452 C-9.2626825 15.88806702 -9.89690125 15.15587952 -10.55033875 14.40150452 C-12.27271708 11.44306644 -12.24700695 9.49174234 -11.87846375 6.12025452 C-8.56980767 0.98613301 -5.92351207 -0.00624185 0 0 Z " fill="#0F4AC7" transform="translate(34.87846374511719,40.87974548339844)"/>
<path d="M0 0 C1.00540833 -0.00412399 2.01081665 -0.00824799 3.04669189 -0.01249695 C4.69961998 0.00368179 4.69961998 0.00368179 6.38594055 0.02018738 C7.54705353 0.0197493 8.7081665 0.01931122 9.90446472 0.01885986 C13.75173109 0.02095397 17.59856453 0.04431505 21.445755 0.0677948 C24.10948424 0.07338854 26.77318932 0.07780721 29.43692017 0.08065796 C35.73739575 0.08998536 42.03771533 0.11460843 48.33812219 0.14470643 C55.5109474 0.1782289 62.68378003 0.19473101 69.85666406 0.20979273 C84.61170128 0.24115746 99.36661605 0.29393141 114.12153625 0.36076355 C114.12153625 1.02076355 114.12153625 1.68076355 114.12153625 2.36076355 C75.18153625 2.36076355 36.24153625 2.36076355 -3.87846375 2.36076355 C-3.87846375 3.02076355 -3.87846375 3.68076355 -3.87846375 4.36076355 C-5.19846375 4.03076355 -6.51846375 3.70076355 -7.87846375 3.36076355 C-5.42264978 0.32473307 -3.84807607 -0.01216462 0 0 Z " fill="#769BD6" transform="translate(34.87846374511719,40.63923645019531)"/>
<path d="M0 0 C3.66786393 1.50349377 5.68910393 3.63728792 8.25 6.625 C8.95640625 7.44226562 9.6628125 8.25953125 10.390625 9.1015625 C10.92171875 9.72804688 11.4528125 10.35453125 12 11 C11.34 11.66 10.68 12.32 10 13 C8.2925002 11.71937515 6.62626404 10.38232443 5 9 C5 8.34 5 7.68 5 7 C4.34 7 3.68 7 3 7 C2.67 7.66 2.34 8.32 2 9 C0 8 0 8 -1 5 C-1.66 6.32 -2.32 7.64 -3 9 C-3.66 9 -4.32 9 -5 9 C-6.12968379 11.17867588 -7.06848701 13.21599749 -7.8125 15.5625 C-9.33602499 18.6897355 -10.92577889 19.46288944 -14 21 C-14.763125 21.391875 -15.52625 21.78375 -16.3125 22.1875 C-16.869375 22.455625 -17.42625 22.72375 -18 23 C-16.75696721 18.44221312 -14.25137114 16.06315714 -10.9453125 12.90234375 C-6.89728176 8.94372734 -3.14093932 4.71140899 0 0 Z " fill="#3D8BF5" transform="translate(150,42)"/>
<path d="M0 0 C3 2 3 2 4 6 C1.03 6.66 -1.94 7.32 -5 8 C-5 9.98 -5 11.96 -5 14 C-5.94875 14.2475 -6.8975 14.495 -7.875 14.75 C-11.04299843 15.68959716 -11.04299843 15.68959716 -12.375 17.9375 C-13.1450037 20.11932596 -13.1450037 20.11932596 -13 23 C-18.625 25 -18.625 25 -22 25 C-21.45472656 24.40574219 -20.90945312 23.81148437 -20.34765625 23.19921875 C-15.39280613 17.75311853 -10.64356963 12.1939686 -6.04296875 6.4453125 C-4.13421464 4.16064697 -2.13961197 2.06749022 0 0 Z " fill="#3B87F3" transform="translate(131,64)"/>
<path d="M0 0 C4.58716587 4.44381694 8.78762713 9.20228499 13 14 C10 16 10 16 7.8125 15.625 C7.214375 15.41875 6.61625 15.2125 6 15 C6 14.34 6 13.68 6 13 C4.68 13.33 3.36 13.66 2 14 C0.875 10.25 0.875 10.25 2 8 C1.34 8 0.68 8 0 8 C0 7.34 0 6.68 0 6 C-0.66 5.67 -1.32 5.34 -2 5 C-1.34 3.35 -0.68 1.7 0 0 Z " fill="#80C3F6" transform="translate(200,97)"/>
<path d="M0 0 C16.17 0 32.34 0 49 0 C49 0.33 49 0.66 49 1 C33.49 1.33 17.98 1.66 2 2 C1.34 3.98 0.68 5.96 0 8 C-3.125 9.375 -3.125 9.375 -6 10 C-6 8.02 -6 6.04 -6 4 C-4.02 3.34 -2.04 2.68 0 2 C0 1.34 0 0.68 0 0 Z " fill="#0C51D5" transform="translate(31,43)"/>
<path d="M0 0 C1.9375 0.5625 1.9375 0.5625 4 2 C5.14487832 6.04523674 5.42951635 8.12229269 3.5625 11.9375 C2.7890625 12.9584375 2.7890625 12.9584375 2 14 C0.125 13.8125 0.125 13.8125 -2 13 C-3.68644932 10.10894403 -4.06919665 8.51897488 -3.625 5.1875 C-3.41875 4.465625 -3.2125 3.74375 -3 3 C-2.34 3 -1.68 3 -1 3 C-0.67 2.01 -0.34 1.02 0 0 Z " fill="#74BDFB" transform="translate(213,113)"/>
<path d="M0 0 C6.43125521 0.71458391 10.17068798 7.38518808 14 12 C16.03673626 14.09845554 18.12399897 16.11711014 20.25 18.125 C22 20 22 20 22 22 C22.99 22.33 23.98 22.66 25 23 C24.34 24.32 23.68 25.64 23 27 C22.51273438 26.37996094 22.02546875 25.75992188 21.5234375 25.12109375 C16.14562717 18.40371976 10.45602896 12.09389173 4.52294922 5.86499023 C3.93658691 5.24696533 3.35022461 4.62894043 2.74609375 3.9921875 C2.21685303 3.43901855 1.6876123 2.88584961 1.14233398 2.31591797 C0 1 0 1 0 0 Z " fill="#3D57B1" transform="translate(57,92)"/>
<path d="M0 0 C3.89061146 3.83286584 7.62055805 7.78859729 11.3125 11.8125 C12.13717773 12.7087207 12.13717773 12.7087207 12.97851562 13.62304688 C14.31996978 15.08114922 15.66012065 16.5404504 17 18 C16.34 18.66 15.68 19.32 15 20 C13.86800647 19.0919838 12.74467637 18.17316174 11.625 17.25 C10.99851563 16.73953125 10.37203125 16.2290625 9.7265625 15.703125 C8 14 8 14 6.96875 11.875 C6.06909825 9.63226842 6.06909825 9.63226842 2.875 8.75 C1.451875 8.37875 1.451875 8.37875 0 8 C-0.33 8.66 -0.66 9.32 -1 10 C-1 9.01 -1 8.02 -1 7 C-0.34 7 0.32 7 1 7 C0.67 4.69 0.34 2.38 0 0 Z " fill="#619CE3" transform="translate(162,54)"/>
<path d="M0 0 C3.55685722 3.50558721 6.96283047 7.10553239 10.3125 10.8125 C11.19550781 11.78832031 12.07851562 12.76414062 12.98828125 13.76953125 C13.65214844 14.50558594 14.31601563 15.24164063 15 16 C14.34 16.33 13.68 16.66 13 17 C12.67 17.66 12.34 18.32 12 19 C9 15.25 9 15.25 9 13 C8.34 13 7.68 13 7 13 C7 11.68 7 10.36 7 9 C6.01 8.67 5.02 8.34 4 8 C4 7.34 4 6.68 4 6 C3.21625 6.495 2.4325 6.99 1.625 7.5 C-1 9 -1 9 -3 9 C-2.690625 8.443125 -2.38125 7.88625 -2.0625 7.3125 C-0.94238179 4.87459567 -0.43962636 2.63775814 0 0 Z " fill="#97CBF2" transform="translate(185,80)"/>
<path d="M0 0 C0.66 0.33 1.32 0.66 2 1 C2 1.99 2 2.98 2 4 C0.68 4.33 -0.64 4.66 -2 5 C-1.67 6.98 -1.34 8.96 -1 11 C-0.01 11.33 0.98 11.66 2 12 C2.69040574 13.65697379 3.3530635 15.3255761 4 17 C5.28667172 18.70294787 6.61096733 20.37946188 8 22 C5 22 5 22 2.9921875 20.1015625 C2.29351562 19.28429687 1.59484375 18.46703125 0.875 17.625 C0.17117187 16.81289063 -0.53265625 16.00078125 -1.2578125 15.1640625 C-4.0800317 11.65843595 -4.44096387 9.49783147 -4 5 C-2 2.125 -2 2.125 0 0 Z " fill="#3F66C8" transform="translate(27,42)"/>
<path d="M0 0 C0.66 0.99 1.32 1.98 2 3 C1.67 3.33 1.34 3.66 1 4 C1.48328248 6.4164124 2.21944061 8.65832183 3 11 C-2.75 10.25 -2.75 10.25 -5 8 C-5.125 4.875 -5.125 4.875 -5 2 C-3.35 1.34 -1.7 0.68 0 0 Z " fill="#2879EF" transform="translate(30,185)"/>
<path d="M0 0 C3.66786393 1.50349377 5.68910393 3.63728792 8.25 6.625 C8.95640625 7.44226562 9.6628125 8.25953125 10.390625 9.1015625 C10.92171875 9.72804688 11.4528125 10.35453125 12 11 C11.34 11.66 10.68 12.32 10 13 C8.2925002 11.71937515 6.62626404 10.38232443 5 9 C5 8.34 5 7.68 5 7 C4.34 7 3.68 7 3 7 C2.67 7.66 2.34 8.32 2 9 C1.34 8.67 0.68 8.34 0 8 C0 7.01 0 6.02 0 5 C0.66 4.67 1.32 4.34 2 4 C2 3.34 2 2.68 2 2 C1.34 2 0.68 2 0 2 C0 1.34 0 0.68 0 0 Z " fill="#5C9EE7" transform="translate(150,42)"/>
<path d="M0 0 C0.66 0 1.32 0 2 0 C3.4375 1.49609375 3.4375 1.49609375 5 3.4375 C7.14525044 6.15188238 7.14525044 6.15188238 10 8 C11.03789581 9.64333504 12.03567924 11.31243867 13 13 C13.99 14.485 13.99 14.485 15 16 C12 16 12 16 10.55786133 14.85424805 C10.0708374 14.32871338 9.58381348 13.80317871 9.08203125 13.26171875 C8.55029297 12.68873047 8.01855469 12.11574219 7.47070312 11.52539062 C6.92349609 10.91888672 6.37628906 10.31238281 5.8125 9.6875 C5.25369141 9.09259766 4.69488281 8.49769531 4.11914062 7.88476562 C0 3.38338484 0 3.38338484 0 0 Z " fill="#456BC1" transform="translate(35,65)"/>
<path d="M0 0 C0 3 0 3 -1 6 C-1.99 6.66 -2.98 7.32 -4 8 C-4.33 8.99 -4.66 9.98 -5 11 C-5.66 11 -6.32 11 -7 11 C-6.67 12.093125 -6.34 13.18625 -6 14.3125 C-5 18 -5 18 -5 21 C-7.58175063 18.90232762 -8.85409617 17.57035133 -9.6875 14.3125 C-8.47291929 8.4604293 -4.15158491 4.15158491 0 0 Z " fill="#6296DD" transform="translate(32,176)"/>
<path d="M0 0 C1.98 0 3.96 0 6 0 C3.58662205 4.82675589 0.13937592 7.69984002 -4 11 C-4.125 5.25 -4.125 5.25 -3 3 C-2.01 3.33 -1.02 3.66 0 4 C0 2.68 0 1.36 0 0 Z " fill="#8AC3F2" transform="translate(207,128)"/>
<path d="M0 0 C4.03135171 1.83243259 7.18248143 3.53228483 10 7 C10 7.99 10 8.98 10 10 C11.32 10.33 12.64 10.66 14 11 C12.02 11.99 12.02 11.99 10 13 C9.34 11.68 8.68 10.36 8 9 C7.01 9.33 6.02 9.66 5 10 C4.9175 9.4225 4.835 8.845 4.75 8.25 C3.7973369 5.39201069 2.13946926 4.07045412 0 2 C0 1.34 0 0.68 0 0 Z " fill="#1651D2" transform="translate(29,56)"/>
<path d="M0 0 C0.625 1.875 0.625 1.875 1 4 C0.34 4.66 -0.32 5.32 -1 6 C-1.33 6.66 -1.66 7.32 -2 8 C-3.32 8 -4.64 8 -6 8 C-6.66 9.98 -7.32 11.96 -8 14 C-9.65 14.33 -11.3 14.66 -13 15 C-9.09489511 9.49280079 -4.90282356 4.64172645 0 0 Z " fill="#639AE2" transform="translate(63,141)"/>
<path d="M0 0 C0.66 0 1.32 0 2 0 C0.79618552 2.49361571 -0.45428722 4.68143083 -2 7 C-1.34 7.33 -0.68 7.66 0 8 C-0.99 9.485 -0.99 9.485 -2 11 C-3.65 10.67 -5.3 10.34 -7 10 C-5.32598022 6.04322598 -2.86850715 3.15535787 0 0 Z M2 4 C2.33 4.66 2.66 5.32 3 6 C2.34 5.67 1.68 5.34 1 5 C1.33 4.67 1.66 4.34 2 4 Z " fill="#78C0FD" transform="translate(184,82)"/>
<path d="M0 0 C1.32 0.66 2.64 1.32 4 2 C3.52797514 6.24822374 1.03344482 8.19989709 -2 11 C-2.625 8.625 -2.625 8.625 -3 6 C-2.34 5.34 -1.68 4.68 -1 4 C-0.3574765 1.93125966 -0.3574765 1.93125966 0 0 Z " fill="#3E8DE8" transform="translate(181,77)"/>
<path d="M0 0 C0.33 0.66 0.66 1.32 1 2 C1.66 2 2.32 2 3 2 C3 4.31 3 6.62 3 9 C1.68 9 0.36 9 -1 9 C-1.66 8.34 -2.32 7.68 -3 7 C-2.61121812 3.98694043 -1.73543126 2.60314689 0 0 Z " fill="#0F3FB5" transform="translate(77,102)"/>
<path d="M0 0 C0.66 0 1.32 0 2 0 C0.42219077 3.71045247 -1.90703248 6.29906384 -4.625 9.25 C-5.44226563 10.14203125 -6.25953125 11.0340625 -7.1015625 11.953125 C-7.72804688 12.62859375 -8.35453125 13.3040625 -9 14 C-9.33 13.01 -9.66 12.02 -10 11 C-9.195625 10.2265625 -9.195625 10.2265625 -8.375 9.4375 C-5.87437727 6.87107141 -3.62269721 4.17203076 -1.3671875 1.390625 C-0.91601562 0.93171875 -0.46484375 0.4728125 0 0 Z " fill="#2B7AE0" transform="translate(94,181)"/>
<path d="M0 0 C3 2 3 2 3.875 5.3125 C4.01188949 9.35073984 3.39689465 10.83609906 1 14 C0.01 13.34 -0.98 12.68 -2 12 C-1.01 12 -0.02 12 1 12 C0.67 8.04 0.34 4.08 0 0 Z " fill="#9BCBEF" transform="translate(214,113)"/>
<path d="M0 0 C0.66 0.33 1.32 0.66 2 1 C-1.3 4.63 -4.6 8.26 -8 12 C-9 9 -9 9 -8.25 6.9375 C-7 5 -7 5 -4 3 C-2.66209359 2.00612666 -1.32781878 1.0073108 0 0 Z " fill="#3888E7" transform="translate(177,88)"/>
<path d="M0 0 C4.875 4.75 4.875 4.75 6 7 C5.67 7.66 5.34 8.32 5 9 C3.35 8.67 1.7 8.34 0 8 C-0.33 8.66 -0.66 9.32 -1 10 C-1 9.01 -1 8.02 -1 7 C-0.34 7 0.32 7 1 7 C0.67 4.69 0.34 2.38 0 0 Z " fill="#549DEE" transform="translate(162,54)"/>
<path d="M0 0 C1.11196276 3.33588828 1.09809194 4.70572419 0 8 C-2.0625 9.3125 -2.0625 9.3125 -4 10 C-4.99 9.34 -5.98 8.68 -7 8 C-4.69 5.36 -2.38 2.72 0 0 Z " fill="#5595E4" transform="translate(74,128)"/>
<path d="M0 0 C0.928125 0.5259375 0.928125 0.5259375 1.875 1.0625 C2.57625 1.371875 3.2775 1.68125 4 2 C4.66 1.67 5.32 1.34 6 1 C5.6875 2.875 5.6875 2.875 5 5 C4.01 5.66 3.02 6.32 2 7 C1.01 6.67 0.02 6.34 -1 6 C-1.33 5.01 -1.66 4.02 -2 3 C-1.34 2.01 -0.68 1.02 0 0 Z " fill="#2A78EA" transform="translate(33,176)"/>
<path d="M0 0 C2.33333333 0 4.66666667 0 7 0 C5.55746343 3.36591866 3.66735273 5.51047079 1 8 C0.40267181 5.23735711 0 2.83967231 0 0 Z " fill="#0C3DAD" transform="translate(81,112)"/>
<path d="M0 0 C0.66 0.33 1.32 0.66 2 1 C1.34 2.98 0.68 4.96 0 7 C-0.66 7 -1.32 7 -2 7 C-2.33 7.99 -2.66 8.98 -3 10 C-3.99 9.34 -4.98 8.68 -6 8 C-4.02 5.36 -2.04 2.72 0 0 Z " fill="#5E9AE4" transform="translate(81,119)"/>
<path d="M0 0 C1.65 1.65 3.3 3.3 5 5 C4.67 5.99 4.34 6.98 4 8 C4 7.34 4 6.68 4 6 C3.21625 6.495 2.4325 6.99 1.625 7.5 C-1 9 -1 9 -3 9 C-2.690625 8.443125 -2.38125 7.88625 -2.0625 7.3125 C-0.94238179 4.87459567 -0.43962636 2.63775814 0 0 Z " fill="#8FC6F8" transform="translate(185,80)"/>
<path d="M0 0 C0.33 0.99 0.66 1.98 1 3 C0.0479279 4.00596297 -0.91187346 5.00461563 -1.875 6 C-2.40867188 6.556875 -2.94234375 7.11375 -3.4921875 7.6875 C-5 9 -5 9 -7 9 C-6.67 7.68 -6.34 6.36 -6 5 C-5.01 5 -4.02 5 -3 5 C-2.814375 4.0409375 -2.814375 4.0409375 -2.625 3.0625 C-2.41875 2.381875 -2.2125 1.70125 -2 1 C-1.34 0.67 -0.68 0.34 0 0 Z " fill="#89BEEA" transform="translate(157,189)"/>
<path d="M0 0 C0.66 0.33 1.32 0.66 2 1 C2 1.99 2 2.98 2 4 C0.68 4.33 -0.64 4.66 -2 5 C-2 6.98 -2 8.96 -2 11 C-2.66 11 -3.32 11 -4 11 C-4.36630156 7.06225823 -4.30233203 5.43460229 -2 2.125 C-1.34 1.42375 -0.68 0.7225 0 0 Z " fill="#5B7CCE" transform="translate(27,42)"/>
<path d="M0 0 C1.5625 1.25 1.5625 1.25 3 3 C2.6875 5.1875 2.6875 5.1875 2 7 C0.35 6.67 -1.3 6.34 -3 6 C-2.42655063 3.13275314 -2.1385485 2.1385485 0 0 Z " fill="#75C0FE" transform="translate(172,96)"/>
<path d="M0 0 C0.99 0.33 1.98 0.66 3 1 C2.02471263 2.33617352 1.04466681 3.6688751 0.0625 5 C-0.48277344 5.7425 -1.02804688 6.485 -1.58984375 7.25 C-2.28787109 8.11625 -2.28787109 8.11625 -3 9 C-3.33 9 -3.66 9 -4 9 C-4 7.35 -4 5.7 -4 4 C-3.01 4 -2.02 4 -1 4 C-0.67 2.68 -0.34 1.36 0 0 Z " fill="#85C0F0" transform="translate(167,176)"/>
<path d="M0 0 C0.33 0.99 0.66 1.98 1 3 C0.54625 3.4125 0.0925 3.825 -0.375 4.25 C-2.05950374 6.06408095 -2.99265971 7.75285627 -4 10 C-5.32 9.67 -6.64 9.34 -8 9 C-5.36 6.03 -2.72 3.06 0 0 Z " fill="#649CDD" transform="translate(43,163)"/>
<path d="M0 0 C1.98 0 3.96 0 6 0 C6.33 1.32 6.66 2.64 7 4 C3.89448334 4 2.64738916 3.4606285 0 2 C0 1.34 0 0.68 0 0 Z " fill="#1747B7" transform="translate(56,89)"/>
<path d="M0 0 C0 2.9355647 -0.15755581 5.19185271 -1 8 C-3.0625 9.8125 -3.0625 9.8125 -5 11 C-3.92289822 6.69159287 -2.96052484 3.36423277 0 0 Z " fill="#0844B9" transform="translate(117,74)"/>
<path d="M0 0 C0.66 0 1.32 0 2 0 C0.63055898 2.94956528 -0.87830409 5.52468811 -3 8 C-3.66 8 -4.32 8 -5 8 C-4.34 5.69 -3.68 3.38 -3 1 C-2.01 1.33 -1.02 1.66 0 2 C0 1.34 0 0.68 0 0 Z " fill="#2F7DE5" transform="translate(110,163)"/>
<path d="M0 0 C2.64752004 2.57784846 4.94432065 4.91648098 7 8 C6.01 8 5.02 8 4 8 C3.67 6.68 3.34 5.36 3 4 C1.68 3.67 0.36 3.34 -1 3 C-0.67 2.01 -0.34 1.02 0 0 Z " fill="#A2CEF3" transform="translate(200,97)"/>
<path d="M0 0 C3 2 3 2 3.6875 5.125 C3.790625 6.07375 3.89375 7.0225 4 8 C-0.875 3.25 -0.875 3.25 -2 1 C-1.34 0.67 -0.68 0.34 0 0 Z " fill="#0F41BA" transform="translate(68,97)"/>
<path d="M0 0 C1.32 0 2.64 0 4 0 C3.6875 1.875 3.6875 1.875 3 4 C2.01 4.66 1.02 5.32 0 6 C0 4.02 0 2.04 0 0 Z " fill="#8EC0EB" transform="translate(170,171)"/>
<path d="M0 0 C1.98 0.495 1.98 0.495 4 1 C2.02 3.97 2.02 3.97 0 7 C-1.04449911 3.86650268 -0.93423645 3.01031744 0 0 Z " fill="#8DC4EF" transform="translate(195,143)"/>
<path d="M0 0 C3.26954202 0.56371414 4.82575883 1.49962266 7 4 C6.34 4.66 5.68 5.32 5 6 C3.35 4.02 1.7 2.04 0 0 Z " fill="#586EBE" transform="translate(57,92)"/>
<path d="M0 0 C0.66 0.99 1.32 1.98 2 3 C0.02 3.99 0.02 3.99 -2 5 C-2.99 4.34 -3.98 3.68 -5 3 C-5 2.34 -5 1.68 -5 1 C-2.525 1.495 -2.525 1.495 0 2 C0 1.34 0 0.68 0 0 Z " fill="#1748B9" transform="translate(54,80)"/>
</svg>
