<?xml version="1.0" encoding="UTF-8"?>
<svg version="1.1" xmlns="http://www.w3.org/2000/svg" width="256" height="256">
<path d="M0 0 C2.91621635 2.8087768 5.48757127 5.82846659 8 9 C9.08518111 8.08552154 10.16804738 7.16829593 11.25 6.25 C12.21679688 5.43208984 12.21679688 5.43208984 13.203125 4.59765625 C15.11866507 2.96451489 15.11866507 2.96451489 17 0.6875 C19.96460035 -1.81388154 22.16249192 -2 26 -2 C30.50845672 0.57279361 33.75516377 3.6366745 37.1875 7.5 C38.14956536 8.5730729 39.11181001 9.64598506 40.07421875 10.71875 C40.8019751 11.53666016 40.8019751 11.53666016 41.54443359 12.37109375 C43.83761757 14.93736739 46.16973029 17.46744269 48.5 20 C49.41687324 20.9998106 50.33353949 21.99981106 51.25 23 C51.70375 23.495 52.1575 23.99 52.625 24.5 C78.75 53 78.75 53 80.12475586 54.49975586 C81.04220685 55.50059668 81.95968736 56.50141045 82.87719727 57.50219727 C85.15710551 59.98911261 87.43651293 62.47648315 89.71484375 64.96484375 C90.16400146 65.45500977 90.61315918 65.94517578 91.07592773 66.45019531 C91.98151043 67.43940274 92.88597654 68.42963355 93.78930664 69.42089844 C96.23493519 72.09933999 98.70675762 74.74687292 101.21875 77.36328125 C114 90.74647697 114 90.74647697 114 98.625 C112.16895157 104.80478846 108.46304144 108.69636993 103.93945312 113.06201172 C102.10964078 114.89044203 100.41495342 116.77236602 98.73046875 118.734375 C95.12986779 122.88057942 91.39844821 126.88640119 87.625 130.875 C82.76380822 136.03596428 77.95253542 141.23046221 73.23046875 146.51953125 C70.04851352 150.05813295 66.81487946 153.54808882 63.58349609 157.04150391 C59.28541396 161.68833692 55.00453124 166.3506077 50.73046875 171.01953125 C48.86114081 173.06143328 46.98840159 175.10013497 45.11328125 177.13671875 C44.15882855 178.17445561 43.20440114 179.21221572 42.25 180.25 C41.79093262 180.74814209 41.33186523 181.24628418 40.85888672 181.75952148 C37.65198471 185.25177849 34.55206209 188.81923931 31.53515625 192.4765625 C29.69642252 194.30126009 28.48073592 195.19753586 26 196 C21.64514497 195.92517431 19.56230956 195.4475525 16.12890625 192.71484375 C15.28199219 191.79832031 14.43507813 190.88179687 13.5625 189.9375 C12.26505859 188.55884766 12.26505859 188.55884766 10.94140625 187.15234375 C10.30074219 186.44207031 9.66007812 185.73179687 9 185 C5.94160173 187.48939394 3.13023049 189.86024045 0.4375 192.75 C-2.24318469 195.22447818 -3.3727679 196 -7 196 C-11.40235933 194.14387012 -14.20515517 192.10475408 -17.3125 188.5 C-18.0859375 187.60925781 -18.859375 186.71851563 -19.65625 185.80078125 C-22.66356814 182.20703607 -25.605364 178.56247282 -28.55078125 174.91796875 C-31.75680918 171.09834696 -35.14989784 167.4753559 -38.55786133 163.83666992 C-42.45968389 159.64706391 -46.07310178 155.27845286 -49.65625 150.8125 C-52.33208171 147.60150195 -55.14358276 144.54970863 -58 141.5 C-62.4345878 136.76532731 -66.58573191 131.88847658 -70.64453125 126.82421875 C-73.38166905 123.54237691 -76.26505075 120.42867306 -79.1875 117.3125 C-92.43966453 103.16315084 -92.43966453 103.16315084 -92.265625 95.0703125 C-91.47207022 88.88525319 -85.41451564 84.06062781 -81.4140625 79.6953125 C-79.07970217 77.08898786 -76.87582506 74.41693817 -74.6875 71.6875 C-70.79679292 66.87334412 -66.66999534 62.35075666 -62.44213867 57.83666992 C-59.32475274 54.48935757 -56.36440833 51.07013212 -53.5 47.5 C-49.68005989 42.73891522 -45.61061181 38.28726975 -41.44140625 33.8359375 C-37.54683474 29.65398031 -33.93911169 25.29428551 -30.36328125 20.8359375 C-27.1035809 16.92429708 -23.64889693 13.20929776 -20.16015625 9.50195312 C-17.93660847 7.13274513 -15.80666365 4.75576769 -13.7890625 2.20703125 C-9.96895366 -2.50554844 -5.1868029 -3.01681393 0 0 Z " fill="#DE82C2" transform="translate(117,31)"/>
<path d="M0 0 C3.23447793 2.92643241 6.07276269 6.0040824 7.921875 9.984375 C8 12 8 12 6.5859375 14.0859375 C5.85632813 14.84132813 5.12671875 15.59671875 4.375 16.375 C3.14136719 17.67824219 3.14136719 17.67824219 1.8828125 19.0078125 C1.42422852 19.48250977 0.96564453 19.95720703 0.49316406 20.44628906 C-1.71248722 22.74137813 -3.87552609 25.075308 -6.04052734 27.40869141 C-7.15499965 28.60911274 -8.27237983 29.80684293 -9.39306641 31.00146484 C-15.93819671 37.41055546 -15.93819671 37.41055546 -19.75 45.375 C-18.65746254 50.65559774 -15.70243425 53.22900215 -12 57 C-10.59810644 58.55706499 -9.20256794 60.11986864 -7.8125 61.6875 C-4.2762964 65.60794304 -0.70811009 69.49751373 2.875 73.375 C3.37580078 73.91705078 3.87660156 74.45910156 4.39257812 75.01757812 C6.45781415 77.25205244 8.52350134 79.48609452 10.59228516 81.71728516 C12.12606916 83.37214493 13.65700929 85.0295948 15.1875 86.6875 C15.65720215 87.19265137 16.1269043 87.69780273 16.61083984 88.21826172 C19.23374943 91.06456443 20.81940817 92.81497363 21.41015625 96.69140625 C20.83160835 101.35835932 18.55565433 103.56161267 15.4375 106.9375 C14.88682861 107.5557666 14.33615723 108.1740332 13.76879883 108.81103516 C10.47857679 112.47737938 7.09322099 116.03295465 3.55078125 119.45703125 C1.29083615 121.70559123 -0.75038149 124.1268771 -2.828125 126.54296875 C-6.34791845 130.52489335 -9.99923743 134.38565677 -13.64501953 138.25219727 C-14.19270996 138.83670654 -14.74040039 139.42121582 -15.3046875 140.0234375 C-15.79952637 140.54856934 -16.29436523 141.07370117 -16.80419922 141.61474609 C-18.640272 143.74171159 -18.99846158 144.98457306 -19.28125 147.8203125 C-18.94311751 151.64308811 -17.96654481 152.9815532 -15.5 155.875 C-14.76910156 156.73609375 -14.03820312 157.5971875 -13.28515625 158.484375 C-10.59724024 161.44337998 -7.81453404 164.2720887 -4.94921875 167.05859375 C-1.78066804 170.21444486 1.10234745 173.59745345 4 177 C4.825 177.9075 5.65 178.815 6.5 179.75 C8 182 8 182 7.7890625 183.8828125 C5.77442539 189.28842297 1.54844074 193.26652807 -3.5625 195.6875 C-7.78979774 196.07179979 -9.37737614 195.13558773 -13 193 C-15.23828125 190.90625 -15.23828125 190.90625 -17.3125 188.5 C-18.0859375 187.60925781 -18.859375 186.71851563 -19.65625 185.80078125 C-22.66356814 182.20703607 -25.605364 178.56247282 -28.55078125 174.91796875 C-31.75680918 171.09834696 -35.14989784 167.4753559 -38.55786133 163.83666992 C-42.45968389 159.64706391 -46.07310178 155.27845286 -49.65625 150.8125 C-52.33208171 147.60150195 -55.14358276 144.54970863 -58 141.5 C-62.4345878 136.76532731 -66.58573191 131.88847658 -70.64453125 126.82421875 C-73.38166905 123.54237691 -76.26505075 120.42867306 -79.1875 117.3125 C-92.43966453 103.16315084 -92.43966453 103.16315084 -92.265625 95.0703125 C-91.47207022 88.88525319 -85.41451564 84.06062781 -81.4140625 79.6953125 C-79.07970217 77.08898786 -76.87582506 74.41693817 -74.6875 71.6875 C-70.79679292 66.87334412 -66.66999534 62.35075666 -62.44213867 57.83666992 C-59.32475274 54.48935757 -56.36440833 51.07013212 -53.5 47.5 C-49.68005989 42.73891522 -45.61061181 38.28726975 -41.44140625 33.8359375 C-37.54683474 29.65398031 -33.93911169 25.29428551 -30.36328125 20.8359375 C-27.1035809 16.92429708 -23.64889693 13.20929776 -20.16015625 9.50195312 C-17.93660847 7.13274513 -15.80666365 4.75576769 -13.7890625 2.20703125 C-9.7077011 -2.82783597 -5.66278637 -2.53849044 0 0 Z " fill="#912E88" transform="translate(117,31)"/>
<path d="M0 0 C1.32 0 2.64 0 4 0 C4.66 3.63 5.32 7.26 6 11 C6.66 11 7.32 11 8 11 C9.3046875 12.29296875 9.3046875 12.29296875 10.875 14.1875 C14.16832888 18.05957287 17.55156274 21.82905467 21 25.5625 C21.52279541 26.12888184 22.04559082 26.69526367 22.58422852 27.27880859 C25.78216369 30.7276904 29.0472836 34.08612699 32.41015625 37.375 C34.88138457 39.90087464 37.14843837 42.59709143 39.421875 45.30078125 C42.3227588 48.42425762 44.91029109 49.33680396 49 50 C48.41373218 53.26089267 47.44439382 54.9456245 45.15625 57.3203125 C44.57407715 57.93277832 43.9919043 58.54524414 43.39208984 59.17626953 C42.45550537 60.14089111 42.45550537 60.14089111 41.5 61.125 C40.21026294 62.47852421 38.9211998 63.83269091 37.6328125 65.1875 C37.00536133 65.84363281 36.37791016 66.49976563 35.73144531 67.17578125 C33.56899269 69.45410133 31.46516201 71.78031642 29.375 74.125 C25.40787602 78.56581043 21.37140715 82.93875945 17.31787109 87.30053711 C13.93629173 90.95000216 10.66079544 94.66773055 7.5 98.51171875 C5.67734735 100.32013192 4.45926618 101.2015924 2 102 C-2.31307111 101.92572208 -4.4413449 101.43130902 -7.87890625 98.77734375 C-8.76449219 97.84019531 -9.65007812 96.90304688 -10.5625 95.9375 C-11.45066406 95.01839844 -12.33882812 94.09929687 -13.25390625 93.15234375 C-15.2805585 90.90765468 -17.09038465 88.56561431 -18.875 86.125 C-22.07758788 81.77940443 -25.69521331 77.94349511 -29.4375 74.0625 C-43.31259218 59.40592737 -43.31259218 59.40592737 -44.875 53.9375 C-43.4836915 49.26667862 -40.33563809 46.45343944 -37 43 C-35.64146938 41.48306363 -34.28754714 39.96199143 -32.9375 38.4375 C-29.63153574 34.76483322 -26.26855519 31.15185159 -22.87988281 27.5559082 C-11.19105894 16.38226681 -11.19105894 16.38226681 -3 3 C-2.01 2.67 -1.02 2.34 0 2 C0 1.34 0 0.68 0 0 Z " fill="#D873BD" transform="translate(141,125)"/>
<path d="M0 0 C3.80517891 2.76740284 6.6988369 5.86334513 9.73046875 9.41015625 C12.66506965 12.7589349 15.70502031 16.001749 18.75 19.25 C19.35432861 19.89759277 19.95865723 20.54518555 20.58129883 21.21240234 C23.44136843 24.2763 26.310808 27.32944356 29.2109375 30.35546875 C41 42.74825778 41 42.74825778 41 50.625 C39.16884071 56.80516261 35.46252967 60.69682324 30.9387207 65.06274414 C29.11293005 66.88715527 27.42252534 68.76460777 25.7421875 70.72265625 C21.47051787 75.64213248 16.99901595 80.36027006 12.51757812 85.08789062 C8.54976039 89.29271498 4.72896308 93.58155222 1 98 C0.67 97.34 0.34 96.68 0 96 C-1.0725 95.896875 -2.145 95.79375 -3.25 95.6875 C-7.73000227 94.86616625 -9.18549853 93.49680486 -12 90 C-12 89.34 -12 88.68 -12 88 C-13.485 87.505 -13.485 87.505 -15 87 C-16.5078125 85.46875 -16.5078125 85.46875 -18.125 83.5 C-20.79214921 80.34893765 -23.55564922 77.39410589 -26.5 74.5 C-30.00578245 71.04207806 -33.2995988 67.47438402 -36.4921875 63.7265625 C-37.97796098 61.9695883 -37.97796098 61.9695883 -39.6953125 60.3984375 C-41 59 -41 59 -41 57 C-41.66 57 -42.32 57 -43 57 C-45.002784 52.994432 -44.63535709 48.34257826 -44 44 C-42.42970813 40.90290126 -40.58048549 38.33313326 -38 36 C-37.34 36 -36.68 36 -36 36 C-35.7525 35.443125 -35.505 34.88625 -35.25 34.3125 C-33.77075182 31.57589087 -32.06532561 29.32349131 -30 27 C-29.34 27 -28.68 27 -28 27 C-27.67 26.01 -27.34 25.02 -27 24 C-26.34 24 -25.68 24 -25 24 C-24.7421875 23.42765625 -24.484375 22.8553125 -24.21875 22.265625 C-22.88634058 19.78871005 -21.34943882 17.8658834 -19.5 15.75 C-18.58734375 14.69039062 -18.58734375 14.69039062 -17.65625 13.609375 C-16 12 -16 12 -14 12 C-13.73832031 11.40703125 -13.47664063 10.8140625 -13.20703125 10.203125 C-11.25259503 6.63580451 -8.37944765 4.21912228 -5 2 C-2.0625 1.625 -2.0625 1.625 0 2 C0 1.34 0 0.68 0 0 Z " fill="#E697C9" transform="translate(190,79)"/>
<path d="M0 0 C6.14555681 4.91644545 11.31624602 10.56965321 16.56054688 16.40332031 C18.40716672 18.45164015 20.27022999 20.48445831 22.13647461 22.51489258 C23.04308485 23.50234291 23.94756024 24.49175773 24.84985352 25.4831543 C27.24206393 28.10860415 29.66349143 30.69664987 32.13671875 33.24609375 C32.6471875 33.78041016 33.15765625 34.31472656 33.68359375 34.86523438 C34.66184134 35.88794777 35.6497148 36.9015686 36.6484375 37.90429688 C38.8773247 40.25410611 39.95527144 41.57653093 40.30078125 44.84765625 C40.20152344 45.55792969 40.10226563 46.26820312 40 47 C39.01 46.34 38.02 45.68 37 45 C37 44.34 37 43.68 37 43 C36.01 42.67 35.02 42.34 34 42 C32.28125 40.2578125 32.28125 40.2578125 30.5 38.125 C27.99734679 35.14615469 27.99734679 35.14615469 25.28125 32.3671875 C24 31 24 31 24 29 C23.34 29 22.68 29 22 29 C22 28.34 22 27.68 22 27 C21.34 27 20.68 27 20 27 C17 23.53846154 17 23.53846154 17 21 C16.34 21 15.68 21 15 21 C14.5875 20.2575 14.175 19.515 13.75 18.75 C12.12940334 15.79437278 12.12940334 15.79437278 9 14 C5.85228717 11.90152478 4.76558818 10.26633813 3 7 C2.34 6.67 1.68 6.34 1 6 C0.375 2.9375 0.375 2.9375 0 0 Z " fill="#6B1D61" transform="translate(97,81)"/>
<path d="M0 0 C3.79318702 2.75868147 6.68452683 5.83677604 9.6953125 9.3828125 C11.58729717 11.53133747 13.51531335 13.61052427 15.4921875 15.6796875 C16.11875244 16.33799561 16.74531738 16.99630371 17.39086914 17.67456055 C18.65530953 18.99908234 19.92520384 20.31842257 21.20092773 21.63208008 C24.30806779 24.89964889 26.73342881 27.55425011 28 32 C23.71193127 31.52354792 21.73352513 30.34097516 19 27 C19 26.34 19 25.68 19 25 C18.4225 24.979375 17.845 24.95875 17.25 24.9375 C14.20482192 23.6686758 13.48133095 21.6196012 12.015625 18.78125 C10.69772317 16.46985294 8.90458962 14.83656856 7 13 C7 12.34 7 11.68 7 11 C6.34 11 5.68 11 5 11 C5 10.34 5 9.68 5 9 C4.01 8.67 3.02 8.34 2 8 C0.04457812 5.01540871 0 3.73585209 0 0 Z " fill="#691D62" transform="translate(97,183)"/>
<path d="M0 0 C0.66 0 1.32 0 2 0 C2 0.66 2 1.32 2 2 C2.66 2 3.32 2 4 2 C4.33 1.34 4.66 0.68 5 0 C7.31 0 9.62 0 12 0 C12.33 2.64 12.66 5.28 13 8 C8.93639457 9.54417006 6.81882817 10.27294272 2.625 8.875 C0 7 0 7 -0.9375 5 C-1 3 -1 3 0 0 Z " fill="#80337E" transform="translate(104,217)"/>
<path d="M0 0 C1.32 1.32 2.64 2.64 4 4 C3.67 4.66 3.34 5.32 3 6 C2.34 6 1.68 6 1 6 C0.5875 6.45375 0.175 6.9075 -0.25 7.375 C-2.58139465 9.53986646 -4.97828036 10.12705877 -8 11 C-7.67 12.32 -7.34 13.64 -7 15 C-7.66 15 -8.32 15 -9 15 C-9 16.32 -9 17.64 -9 19 C-11.375 20.0625 -11.375 20.0625 -14 21 C-14.66 20.67 -15.32 20.34 -16 20 C-14.36117794 15.96597646 -11.51348168 13.10872646 -8.5625 10 C-5.53473186 6.78523435 -2.56015979 3.61025923 0 0 Z " fill="#B15FA5" transform="translate(97,40)"/>
<path d="M0 0 C0.33 0.66 0.66 1.32 1 2 C-3.625 4.125 -3.625 4.125 -7 3 C-7.433125 3.928125 -7.433125 3.928125 -7.875 4.875 C-9 7 -9 7 -11 9 C-11.33 7.68 -11.66 6.36 -12 5 C-12.99 5 -13.98 5 -15 5 C-13.96183532 1.98932243 -12.96785768 0.97757512 -10.3125 -0.875 C-6.12214772 -2.29813851 -4.03737797 -1.66244975 0 0 Z " fill="#AF55A3" transform="translate(117,31)"/>
<path d="M0 0 C2 0 2 0 3.5859375 1.57421875 C4.17632812 2.27160156 4.76671875 2.96898437 5.375 3.6875 C6.30119141 4.77998047 6.30119141 4.77998047 7.24609375 5.89453125 C7.82488281 6.58933594 8.40367188 7.28414062 9 8 C10.2065625 9.423125 10.2065625 9.423125 11.4375 10.875 C13 13 13 13 13 15 C8.63697672 14.51521964 6.7685198 13.39366943 4 10 C0 3.96563574 0 3.96563574 0 0 Z " fill="#621D5D" transform="translate(112,200)"/>
<path d="M0 0 C0.99 0.33 1.98 0.66 3 1 C4.40913826 6.63655304 3.73956036 9.44153116 0.91015625 14.49609375 C0.60980469 14.99238281 0.30945313 15.48867187 0 16 C-1.01548288 12.76549898 -0.96773311 10.22692818 -0.5625 6.875 C-0.14565931 3.44523255 -0.14565931 3.44523255 0 0 Z " fill="#E2B0CF" transform="translate(227,122)"/>
<path d="M0 0 C1.32 1.32 2.64 2.64 4 4 C3.67 4.66 3.34 5.32 3 6 C2.34 6 1.68 6 1 6 C0.525625 6.474375 0.05125 6.94875 -0.4375 7.4375 C-2 9 -2 9 -5 10 C-4.49701212 5.59885603 -2.91227269 3.28804981 0 0 Z " fill="#9F4293" transform="translate(97,40)"/>
<path d="M0 0 C0.66 0 1.32 0 2 0 C2 0.66 2 1.32 2 2 C2.61875 1.814375 3.2375 1.62875 3.875 1.4375 C6 1 6 1 8 2 C8 4.97 8 7.94 8 11 C4.71773991 7.89515937 2.11486077 5.00710462 0 1 C0 0.67 0 0.34 0 0 Z " fill="#8C4889" transform="translate(96,212)"/>
<path d="M0 0 C0.33 0 0.66 0 1 0 C1 2.31 1 4.62 1 7 C1.66 7 2.32 7 3 7 C4.0064275 8.66279327 5.00585407 10.32983484 6 12 C6.99 12.66 7.98 13.32 9 14 C9.1875 16.625 9.1875 16.625 9 19 C0.31914894 10.80141844 0.31914894 10.80141844 -0.24609375 5.83984375 C-0.24952997 3.89150455 -0.13405002 1.9437253 0 0 Z " fill="#B57BB0" transform="translate(25,124)"/>
<path d="M0 0 C1.12894876 0.93274109 2.25300876 1.87140122 3.375 2.8125 C4.00148438 3.33457031 4.62796875 3.85664062 5.2734375 4.39453125 C7 6 7 6 9 9 C8.67 9.99 8.34 10.98 8 12 C7.34 12 6.68 12 6 12 C4.98133771 10.34467377 3.98189187 8.67739862 3 7 C2.34 6.67 1.68 6.34 1 6 C0.375 2.9375 0.375 2.9375 0 0 Z " fill="#752269" transform="translate(97,81)"/>
<path d="M0 0 C0.66 1.32 1.32 2.64 2 4 C1.34 4 0.68 4 0 4 C-0.2475 4.61875 -0.495 5.2375 -0.75 5.875 C-2.20628639 8.35068687 -3.37812506 8.95125002 -6 10 C-6.33 9.34 -6.66 8.68 -7 8 C-4.69 5.36 -2.38 2.72 0 0 Z " fill="#AA59A0" transform="translate(80,60)"/>
<path d="M0 0 C2.375 0.1875 2.375 0.1875 5 1 C5.71727778 2.64551962 6.38325228 4.31422289 7 6 C9.01669827 7.13350534 9.01669827 7.13350534 11 8 C11.33 8.99 11.66 9.98 12 11 C9 11 9 11 6.73828125 8.84765625 C5.93777344 7.92855469 5.13726562 7.00945312 4.3125 6.0625 C3.50425781 5.14597656 2.69601563 4.22945312 1.86328125 3.28515625 C0 1 0 1 0 0 Z " fill="#9C6095" transform="translate(76,191)"/>
<path d="M0 0 C1.32 0.66 2.64 1.32 4 2 C3.360625 2.433125 2.72125 2.86625 2.0625 3.3125 C-0.26746003 4.91239177 -0.26746003 4.91239177 -1 8 C-2.65 8 -4.3 8 -6 8 C-4.55746343 4.63408134 -2.66735273 2.48952921 0 0 Z " fill="#A957A1" transform="translate(52,92)"/>
<path d="M0 0 C1.98 0.495 1.98 0.495 4 1 C4.28875 2.093125 4.5775 3.18625 4.875 4.3125 C5.81893204 8.04013845 5.81893204 8.04013845 8 11 C6.25 10.9375 6.25 10.9375 4 10 C1.55272534 6.7838181 0 4.07605096 0 0 Z " fill="#6E2567" transform="translate(108,197)"/>
<path d="M0 0 C0.66 0.99 1.32 1.98 2 3 C1.484375 3.598125 0.96875 4.19625 0.4375 4.8125 C-0.2740625 5.8953125 -0.2740625 5.8953125 -1 7 C-0.67 7.99 -0.34 8.98 0 10 C-1.98 9.34 -3.96 8.68 -6 8 C-2.25 2.25 -2.25 2.25 0 0 Z " fill="#AB59A2" transform="translate(64,78)"/>
<path d="M0 0 C0.93423645 3.01031744 1.04449911 3.86650268 0 7 C-1.9375 8.0625 -1.9375 8.0625 -4 9 C-4.66 9.66 -5.32 10.32 -6 11 C-6 6.63204596 -5.77237852 6.25341007 -3 3.25 C-2.443125 2.63640625 -1.88625 2.0228125 -1.3125 1.390625 C-0.6628125 0.70226562 -0.6628125 0.70226562 0 0 Z " fill="#A864A0" transform="translate(34,112)"/>
<path d="M0 0 C0.33 0.66 0.66 1.32 1 2 C3.02463255 2.65213292 3.02463255 2.65213292 5 3 C5 3.99 5 4.98 5 6 C1.71303767 6.79953138 0.28976808 7.09658936 -3 6 C-3 5.34 -3 4.68 -3 4 C-2.01 4 -1.02 4 0 4 C0 2.68 0 1.36 0 0 Z " fill="#894F86" transform="translate(110,220)"/>
<path d="M0 0 C0.99 0 1.98 0 3 0 C1.5682479 5.01113235 -0.98445693 6.94469549 -5 10 C-5 8.68 -5 7.36 -5 6 C-3.68 5.67 -2.36 5.34 -1 5 C-0.67 3.35 -0.34 1.7 0 0 Z " fill="#DA90C4" transform="translate(182,181)"/>
<path d="M0 0 C0.28875 1.11375 0.5775 2.2275 0.875 3.375 C1.69241329 7.00291092 1.69241329 7.00291092 4 9 C3.01 9 2.02 9 1 9 C-0.60546875 7.25 -0.60546875 7.25 -2.1875 5 C-2.71730469 4.2575 -3.24710938 3.515 -3.79296875 2.75 C-4.19128906 2.1725 -4.58960938 1.595 -5 1 C-2 0 -2 0 0 0 Z " fill="#A35D9E" transform="translate(53,158)"/>
<path d="M0 0 C2.5 2.25 2.5 2.25 5 5 C5 6.32 5 7.64 5 9 C4.01 9 3.02 9 2 9 C1.67 7.02 1.34 5.04 1 3 C-0.32 2.67 -1.64 2.34 -3 2 C-2.01 2 -1.02 2 0 2 C0 1.34 0 0.68 0 0 Z " fill="#AC579C" transform="translate(118,33)"/>
<path d="M0 0 C0.33 0.66 0.66 1.32 1 2 C1.66 2 2.32 2 3 2 C2.75 3.875 2.75 3.875 2 6 C-0.0625 7.25 -0.0625 7.25 -2 8 C-1.67 6.68 -1.34 5.36 -1 4 C-1.66 3.67 -2.32 3.34 -3 3 C-2.34 3 -1.68 3 -1 3 C-0.67 2.01 -0.34 1.02 0 0 Z " fill="#D584C0" transform="translate(147,217)"/>
<path d="M0 0 C0.66 0.99 1.32 1.98 2 3 C0.625 4.5 0.625 4.5 -1 6 C-1.66 6 -2.32 6 -3 6 C-3.99 7.485 -3.99 7.485 -5 9 C-5.66 8.67 -6.32 8.34 -7 8 C-4.69 5.36 -2.38 2.72 0 0 Z " fill="#B366A9" transform="translate(72,69)"/>
<path d="M0 0 C0.99 0 1.98 0 3 0 C2.65120368 3.25543229 1.97866739 4.01873107 -0.5625 6.25 C-1.366875 6.8275 -2.17125 7.405 -3 8 C-2.67 6.02 -2.34 4.04 -2 2 C-1.34 2 -0.68 2 0 2 C0 1.34 0 0.68 0 0 Z " fill="#E5A7CE" transform="translate(213,147)"/>
<path d="M0 0 C3.32462531 2.8956414 4.30151606 4.69268237 5 9 C5.66 9.33 6.32 9.66 7 10 C6.01 10 5.02 10 4 10 C1 6.66666667 1 6.66666667 1 4 C0.34 4 -0.32 4 -1 4 C-0.67 2.68 -0.34 1.36 0 0 Z " fill="#732569" transform="translate(113,98)"/>
<path d="M0 0 C3.796875 0.765625 3.796875 0.765625 5.625 2.875 C6.07875 3.57625 6.5325 4.2775 7 5 C7.99 6.485 7.99 6.485 9 8 C8.01 8 7.02 8 6 8 C4.39453125 6.25 4.39453125 6.25 2.8125 4 C2.28269531 3.2575 1.75289062 2.515 1.20703125 1.75 C0.80871094 1.1725 0.41039062 0.595 0 0 Z " fill="#A66AA1" transform="translate(62,175)"/>
<path d="M0 0 C1.65 1.65 3.3 3.3 5 5 C3.02 5.99 3.02 5.99 1 7 C0.01 5.35 -0.98 3.7 -2 2 C-1.34 2 -0.68 2 0 2 C0 1.34 0 0.68 0 0 Z " fill="#79276D" transform="translate(125,111)"/>
<path d="M0 0 C1.65 0.33 3.3 0.66 5 1 C5.33 2.32 5.66 3.64 6 5 C3.69 4.34 1.38 3.68 -1 3 C-0.67 2.01 -0.34 1.02 0 0 Z " fill="#A22F94" transform="translate(114,35)"/>
<path d="M0 0 C1.65 0 3.3 0 5 0 C4.6875 1.875 4.6875 1.875 4 4 C3.01 4.66 2.02 5.32 1 6 C1 5.34 1 4.68 1 4 C0.34 3.67 -0.32 3.34 -1 3 C-0.01 3 0.98 3 2 3 C2 2.34 2 1.68 2 1 C1.34 0.67 0.68 0.34 0 0 Z " fill="#D682BE" transform="translate(185,175)"/>
<path d="M0 0 C0.66 0.33 1.32 0.66 2 1 C1.60196439 3.88575819 1.20990931 4.82189513 -1.0625 6.75 C-1.701875 7.1625 -2.34125 7.575 -3 8 C-2.67 6.02 -2.34 4.04 -2 2 C-1.34 2 -0.68 2 0 2 C0 1.34 0 0.68 0 0 Z " fill="#E2A6CC" transform="translate(193,169)"/>
<path d="M0 0 C1.98 0.66 3.96 1.32 6 2 C6.33 3.98 6.66 5.96 7 8 C4.35247996 5.42215154 2.05567935 3.08351902 0 0 Z " fill="#AA6CA5" transform="translate(41,151)"/>
<path d="M0 0 C3 2 3 2 3.6875 4.125 C3.8421875 5.053125 3.8421875 5.053125 4 6 C3.01 6 2.02 6 1 6 C0 5 0 5 -0.0625 2.4375 C-0.041875 1.633125 -0.02125 0.82875 0 0 Z " fill="#CF6EB5" transform="translate(114,197)"/>
<path d="M0 0 C0.99 0.33 1.98 0.66 3 1 C2 3 1 5 0 7 C-0.66 5.35 -1.32 3.7 -2 2 C-1.34 1.34 -0.68 0.68 0 0 Z " fill="#9B4E97" transform="translate(61,168)"/>
<path d="M0 0 C0.33 0.99 0.66 1.98 1 3 C-0.28965176 4.37562854 -1.62689293 5.70766393 -3 7 C-3.66 7 -4.32 7 -5 7 C-3.70700306 4.11562221 -2.34058637 2.12780579 0 0 Z " fill="#DC9FC6" transform="translate(209,153)"/>
<path d="M0 0 C1.9375 0.75 1.9375 0.75 4 2 C4.75 4.125 4.75 4.125 5 6 C4.01 6 3.02 6 2 6 C1.34 4.02 0.68 2.04 0 0 Z " fill="#DA94C2" transform="translate(185,75)"/>
<path d="M0 0 C0.66 0.66 1.32 1.32 2 2 C0.35 3.65 -1.3 5.3 -3 7 C-3.1875 4.625 -3.1875 4.625 -3 2 C-2.01 1.34 -1.02 0.68 0 0 Z " fill="#9D368F" transform="translate(123,41)"/>
<path d="M0 0 C1.32 1.32 2.64 2.64 4 4 C3.67 4.66 3.34 5.32 3 6 C0.525 5.01 0.525 5.01 -2 4 C-1.34 2.68 -0.68 1.36 0 0 Z " fill="#B35CA9" transform="translate(97,40)"/>
</svg>
