<?xml version="1.0" encoding="UTF-8"?>
<svg version="1.1" xmlns="http://www.w3.org/2000/svg" width="183" height="183">
<path d="M0 0 C6.47886531 5.29749832 11.40174966 12.35290543 13.03515625 20.6640625 C13.15720954 23.33947066 13.07982938 25.98367488 13.03515625 28.6640625 C14.00453125 28.7053125 14.97390625 28.7465625 15.97265625 28.7890625 C23.15439179 29.83579319 29.3883717 35.12222158 33.75 40.7109375 C39.31828872 49.17338237 40.12041396 57.67749909 39.03515625 67.6640625 C38.13547358 71.0078029 36.85267154 73.72853615 35.03515625 76.6640625 C34.68453125 77.28667969 34.33390625 77.90929687 33.97265625 78.55078125 C29.89309512 85.08091209 23.21752866 89.18085467 16.03515625 91.6640625 C13.578125 92.078125 13.578125 92.078125 11.22265625 92.2890625 C10.03736328 92.40121094 10.03736328 92.40121094 8.828125 92.515625 C8.23644531 92.56460938 7.64476563 92.61359375 7.03515625 92.6640625 C6.95265625 93.6746875 6.87015625 94.6853125 6.78515625 95.7265625 C5.7735122 102.50731181 2.19070632 107.20411415 -3.05078125 111.375 C-8.86114425 115.28810161 -15.02721342 116.69440364 -21.96484375 115.6640625 C-31.15513436 113.11272809 -35.96804087 108.58933293 -40.94921875 100.62890625 C-43.33316836 96.01688067 -42.99449187 91.75806144 -42.96484375 86.6640625 C-44.16085205 86.67977295 -45.35686035 86.6954834 -46.58911133 86.71166992 C-51.02263668 86.76593311 -55.45613263 86.8003994 -59.88989258 86.82885742 C-61.80953913 86.8439523 -63.72915115 86.86443023 -65.64868164 86.89038086 C-68.40649939 86.92673359 -71.16386155 86.94378162 -73.921875 86.95703125 C-74.78134232 86.97251511 -75.64080963 86.98799896 -76.52632141 87.00395203 C-77.3269249 87.00417862 -78.12752838 87.00440521 -78.95239258 87.00463867 C-80.00829338 87.01463142 -80.00829338 87.01463142 -81.08552551 87.02482605 C-83.65250835 86.53205488 -84.47672254 85.80895477 -85.96484375 83.6640625 C-86.34579468 81.08361816 -86.34579468 81.08361816 -86.35302734 77.95507812 C-86.36248383 76.78376343 -86.37194031 75.61244873 -86.38168335 74.40563965 C-86.37561066 73.13998169 -86.36953796 71.87432373 -86.36328125 70.5703125 C-86.36615143 69.27210571 -86.36902161 67.97389893 -86.37197876 66.63635254 C-86.3764005 63.88913259 -86.36997634 61.14220543 -86.35595703 58.39501953 C-86.33886467 54.87409409 -86.34870673 51.35385467 -86.36667442 47.83295441 C-86.38012332 44.47451879 -86.37070639 41.11626761 -86.36328125 37.7578125 C-86.36935394 36.49215454 -86.37542664 35.22649658 -86.38168335 33.92248535 C-86.37222687 32.75117065 -86.36277039 31.57985596 -86.35302734 30.37304688 C-86.35064056 29.34062866 -86.34825378 28.30821045 -86.34579468 27.24450684 C-85.96484375 24.6640625 -85.96484375 24.6640625 -84.61103821 22.83427429 C-82.12713025 21.0685665 -80.00110824 21.22592261 -76.984375 21.15234375 C-75.82099609 21.11689453 -74.65761719 21.08144531 -73.45898438 21.04492188 C-72.24404297 21.02236328 -71.02910156 20.99980469 -69.77734375 20.9765625 C-67.9375293 20.92532227 -67.9375293 20.92532227 -66.06054688 20.87304688 C-63.02873697 20.7904684 -59.99721996 20.72134881 -56.96484375 20.6640625 C-56.70799805 19.99149414 -56.45115234 19.31892578 -56.18652344 18.62597656 C-55.84008789 17.73620117 -55.49365234 16.84642578 -55.13671875 15.9296875 C-54.79737305 15.05086914 -54.45802734 14.17205078 -54.10839844 13.26660156 C-50.38006417 4.78153682 -43.66967972 -1.3536421 -35.27734375 -5.1484375 C-22.88288908 -9.59173257 -10.67432086 -7.64334086 0 0 Z M-65.02734375 40.4765625 C-66.31334715 43.47723711 -66.42738181 45.42629611 -65.96484375 48.6640625 C-63.0705528 53.08648273 -59.88002848 55.09731829 -55.21484375 57.4765625 C-54.044375 58.08113281 -52.87390625 58.68570313 -51.66796875 59.30859375 C-50.7759375 59.75589844 -49.88390625 60.20320313 -48.96484375 60.6640625 C-49.33984375 63.1015625 -49.33984375 63.1015625 -49.96484375 65.6640625 C-52.53040517 66.94684321 -54.00413112 66.60040187 -56.83984375 66.2890625 C-57.70351563 66.19882813 -58.5671875 66.10859375 -59.45703125 66.015625 C-61.6884502 65.70280926 -63.79427133 65.25970796 -65.96484375 64.6640625 C-65.96484375 66.6440625 -65.96484375 68.6240625 -65.96484375 70.6640625 C-58.48052353 73.06469351 -51.05386873 73.70857499 -43.83984375 70.1015625 C-41.32268288 66.82925337 -40.65162808 63.77602206 -40.96484375 59.6640625 C-41.6059137 57.2154645 -42.43930581 56.0200273 -44.53637695 54.59960938 C-46.52727414 53.47492979 -48.54318287 52.43361681 -50.58984375 51.4140625 C-51.29625 51.05054688 -52.00265625 50.68703125 -52.73046875 50.3125 C-54.46994327 49.41925633 -56.21671706 48.54025252 -57.96484375 47.6640625 C-57.58984375 45.2265625 -57.58984375 45.2265625 -56.96484375 42.6640625 C-52.68485021 40.52406573 -47.4743602 41.57084639 -42.96484375 42.6640625 C-42.96484375 40.6840625 -42.96484375 38.7040625 -42.96484375 36.6640625 C-50.94671855 35.42575295 -58.5969094 34.82557473 -65.02734375 40.4765625 Z " fill="#048186" transform="translate(114.96484375,37.3359375)"/>
<path d="M0 0 C7.1258885 6.2505631 11.40220314 13.17770767 12.375 22.65234375 C12.62104082 30.34880825 12.07994725 36.41034836 8 43 C7.649375 43.62261719 7.29875 44.24523437 6.9375 44.88671875 C2.85793887 51.41684959 -3.81762759 55.51679217 -11 58 C-13.45703125 58.4140625 -13.45703125 58.4140625 -15.8125 58.625 C-16.99779297 58.73714844 -16.99779297 58.73714844 -18.20703125 58.8515625 C-18.79871094 58.90054688 -19.39039063 58.94953125 -20 59 C-20.0825 60.010625 -20.165 61.02125 -20.25 62.0625 C-21.26164405 68.84324931 -24.84444993 73.54005165 -30.0859375 77.7109375 C-35.8963005 81.62403911 -42.06236967 83.03034114 -49 82 C-58.21086531 79.44295381 -62.99641909 74.86710264 -68.08203125 66.96484375 C-69 65 -69 65 -69 61 C-68.40461426 60.98018066 -67.80922852 60.96036133 -67.19580078 60.93994141 C-64.50507847 60.84483874 -61.81514852 60.73510158 -59.125 60.625 C-58.18785156 60.5940625 -57.25070313 60.563125 -56.28515625 60.53125 C-55.38925781 60.49257812 -54.49335937 60.45390625 -53.5703125 60.4140625 C-52.74289551 60.3826416 -51.91547852 60.3512207 -51.06298828 60.31884766 C-48.78013915 60.17400863 -48.78013915 60.17400863 -47 58 C-46.70364111 55.7716438 -46.70364111 55.7716438 -46.76049805 53.1706543 C-46.7549012 51.66350105 -46.7549012 51.66350105 -46.74919128 50.12590027 C-46.75332535 49.03634537 -46.75745941 47.94679047 -46.76171875 46.82421875 C-46.74629795 44.52929097 -46.72999423 42.23436898 -46.71289062 39.93945312 C-46.69643145 36.31180079 -46.68750571 32.68457138 -46.69458008 29.05688477 C-46.69719713 25.56217286 -46.66909406 22.06875775 -46.63671875 18.57421875 C-46.64692551 17.49073654 -46.65713226 16.40725433 -46.66764832 15.29093933 C-46.56942115 7.73659914 -46.56942115 7.73659914 -43.59179688 3.88476562 C-42.30885742 2.95180664 -42.30885742 2.95180664 -41 2 C-40.30519531 1.42894531 -39.61039063 0.85789062 -38.89453125 0.26953125 C-27.14049319 -7.95609013 -11.92020558 -8.4083605 0 0 Z " fill="#1A9AA0" transform="translate(142,71)"/>
<path d="M0 0 C5.79210833 5.4954079 10.72444119 12.95975086 11.09765625 21.140625 C11.06510417 23.09375 11.03255208 25.046875 11 27 C9.9275 26.938125 8.855 26.87625 7.75 26.8125 C-1.36673257 26.84488626 -8.94654125 29.32656579 -16 35 C-16.66 35 -17.32 35 -18 35 C-19.99137119 38.33991379 -20.29587669 40.99863865 -20.4140625 44.859375 C-20.45273438 45.97441406 -20.49140625 47.08945313 -20.53125 48.23828125 C-20.57765625 49.97658203 -20.57765625 49.97658203 -20.625 51.75 C-20.66367188 52.92433594 -20.70234375 54.09867188 -20.7421875 55.30859375 C-20.8363982 58.20557268 -20.92201602 61.10254626 -21 64 C-21.99 64.33 -22.98 64.66 -24 65 C-24 51.14 -24 37.28 -24 23 C-27.47517129 21.84160957 -30.6727002 21.77198782 -34.29296875 21.68359375 C-34.99899734 21.66281265 -35.70502594 21.64203156 -36.43244934 21.62062073 C-38.68403551 21.55532509 -40.93573662 21.49633353 -43.1875 21.4375 C-44.7155066 21.39429575 -46.24350164 21.35068084 -47.77148438 21.30664062 C-51.51420562 21.19966426 -55.2570423 21.09834078 -59 21 C-56.44119922 10.0763303 -52.31066727 2.68070606 -43 -4 C-28.59952248 -12.0885799 -12.75553454 -10.42966932 0 0 Z " fill="#046A6F" transform="translate(117,39)"/>
<path d="M0 0 C7.77689752 -0.30497637 13.29404519 1.68235296 19.125 6.90234375 C22.56991251 10.64150921 24.94571893 13.93945088 26 19 C26.268125 20.2375 26.53625 21.475 26.8125 22.75 C27.42118283 28.76792082 25.82606231 34.26090654 22.484375 39.2734375 C17.51896457 45.29008348 11.88339433 49.30177616 3.9921875 50.23828125 C-3.53046287 50.5019904 -9.91132732 48.47093814 -15.8125 43.75 C-23 34.71428571 -23 34.71428571 -23 29 C-22.10692139 28.970271 -22.10692139 28.970271 -21.19580078 28.93994141 C-18.50507847 28.84483874 -15.81514852 28.73510158 -13.125 28.625 C-12.18785156 28.5940625 -11.25070313 28.563125 -10.28515625 28.53125 C-9.38925781 28.49257812 -8.49335937 28.45390625 -7.5703125 28.4140625 C-6.74289551 28.3826416 -5.91547852 28.3512207 -5.06298828 28.31884766 C-2.78013915 28.17400863 -2.78013915 28.17400863 -1 26 C-0.62792646 23.28384136 -0.62792646 23.28384136 -0.5859375 20.1171875 C-0.54726562 18.95058594 -0.50859375 17.78398438 -0.46875 16.58203125 C-0.4378125 15.35871094 -0.406875 14.13539062 -0.375 12.875 C-0.33632812 11.64394531 -0.29765625 10.41289063 -0.2578125 9.14453125 C-0.1633001 6.09650624 -0.07774506 3.04849138 0 0 Z " fill="#37C4CE" transform="translate(96,103)"/>
<path d="M0 0 C1.32 0.66 2.64 1.32 4 2 C4.495 22.295 4.495 22.295 5 43 C5.66 43 6.32 43 7 43 C7.08692074 47.27070558 7.14036515 51.54118458 7.1875 55.8125 C7.21263672 57.02744141 7.23777344 58.24238281 7.26367188 59.49414062 C7.27333984 60.65751953 7.28300781 61.82089844 7.29296875 63.01953125 C7.3086792 64.09307861 7.32438965 65.16662598 7.34057617 66.27270508 C7 69 7 69 5.78710938 70.85546875 C3.43081056 72.36453007 1.90071888 72.34364943 -0.88671875 72.29296875 C-1.82451172 72.28330078 -2.76230469 72.27363281 -3.72851562 72.26367188 C-4.70498047 72.23853516 -5.68144531 72.21339844 -6.6875 72.1875 C-7.67556641 72.17396484 -8.66363281 72.16042969 -9.68164062 72.14648438 C-12.12164231 72.11112203 -14.56054719 72.06177033 -17 72 C-17 69.36 -17 66.72 -17 64 C-18.1960083 64.01571045 -19.3920166 64.0314209 -20.62426758 64.04760742 C-25.05779293 64.10187061 -29.49128888 64.1363369 -33.92504883 64.16479492 C-35.84469538 64.1798898 -37.7643074 64.20036773 -39.68383789 64.22631836 C-42.44165564 64.26267109 -45.1990178 64.27971912 -47.95703125 64.29296875 C-48.81649857 64.30845261 -49.67596588 64.32393646 -50.56147766 64.33988953 C-51.36208115 64.34011612 -52.16268463 64.34034271 -52.98754883 64.34057617 C-54.04344963 64.35056892 -54.04344963 64.35056892 -55.12068176 64.36076355 C-57.6896163 63.86761772 -58.51438677 63.14977141 -60 61 C-60.36076355 58.39936829 -60.36076355 58.39936829 -60.34057617 55.2434082 C-60.34034958 54.06241043 -60.34012299 52.88141266 -60.33988953 51.66462708 C-60.32440567 50.38955795 -60.30892181 49.11448883 -60.29296875 47.80078125 C-60.28872391 46.49545944 -60.28447906 45.19013763 -60.28010559 43.84526062 C-60.26866089 40.37794721 -60.23919754 36.91101187 -60.20599365 33.44384766 C-60.17528433 29.90467442 -60.16159845 26.36543999 -60.14648438 22.82617188 C-60.11432705 15.88395945 -60.06313554 8.94199789 -60 2 C-59.67 2 -59.34 2 -59 2 C-58.67 21.14 -58.34 40.28 -58 60 C-57.34 60.33 -56.68 60.66 -56 61 C-56 61.66 -56 62.32 -56 63 C-52.02062229 62.85960448 -48.04155706 62.71168681 -44.0625 62.5625 C-42.94552734 62.52318359 -41.82855469 62.48386719 -40.67773438 62.44335938 C-34.40152808 62.20409051 -28.23490144 61.74869149 -22 61 C-21.01 61 -20.02 61 -19 61 C-17.66018514 60.6937566 -16.32488113 60.36548445 -15 60 C-15 60.99 -15 61.98 -15 63 C-14.10796875 62.9278125 -13.2159375 62.855625 -12.296875 62.78125 C-11.12640625 62.6884375 -9.9559375 62.595625 -8.75 62.5 C-7.58984375 62.4071875 -6.4296875 62.314375 -5.234375 62.21875 C-2.82731342 62.05595356 -0.41256049 62 2 62 C2 61.34 2 60.68 2 60 C2.66 60 3.32 60 4 60 C3.83858017 59.44650879 3.67716034 58.89301758 3.510849 58.32275391 C2.94864293 55.76648708 2.8539891 53.45305955 2.82641602 50.8359375 C2.81292618 49.80807129 2.79943634 48.78020508 2.78553772 47.72119141 C2.77509933 46.61694824 2.76466095 45.51270508 2.75390625 44.375 C2.72097962 42.03645442 2.68776778 39.69791285 2.65429688 37.359375 C2.60680911 33.67255295 2.56234865 29.98574848 2.52319336 26.29882812 C2.48353743 22.74071741 2.43199023 19.18293213 2.37890625 15.625 C2.3704921 14.52075684 2.36207794 13.41651367 2.35340881 12.27880859 C2.32844582 10.73700928 2.32844582 10.73700928 2.30297852 9.1640625 C2.29267105 8.26123535 2.28236359 7.3584082 2.27174377 6.42822266 C1.98503291 3.86625845 1.29310854 2.21072386 0 0 Z " fill="#156A6D" transform="translate(89,60)"/>
<path d="M0 0 C0.33 0 0.66 0 1 0 C1.366 5.49 1.366 5.49 -0.20629883 7.6809082 C-2.56408457 9.41482904 -3.97963693 9.34582478 -6.88671875 9.29296875 C-7.82451172 9.28330078 -8.76230469 9.27363281 -9.72851562 9.26367188 C-10.70498047 9.23853516 -11.68144531 9.21339844 -12.6875 9.1875 C-14.16959961 9.16719727 -14.16959961 9.16719727 -15.68164062 9.14648438 C-18.12164231 9.11112203 -20.56054719 9.06177033 -23 9 C-23 7.02 -23 5.04 -23 3 C-15.41 2.67 -7.82 2.34 0 2 C0 1.34 0 0.68 0 0 Z " fill="#279CA3" transform="translate(95,123)"/>
<path d="M0 0 C1.9375 0.375 1.9375 0.375 4 1 C5.69196504 4.38393008 5.11986549 8.22477791 5.09765625 11.9453125 C5.0962413 12.8303244 5.09482635 13.7153363 5.09336853 14.62716675 C5.0877614 17.45981191 5.07520771 20.29237864 5.0625 23.125 C5.05748592 25.04296761 5.05292285 26.96093646 5.04882812 28.87890625 C5.03778966 33.58596782 5.02052025 38.2929706 5 43 C3.515 43.495 3.515 43.495 2 44 C2 30.14 2 16.28 2 2 C1.34 2 0.68 2 0 2 C0 1.34 0 0.68 0 0 Z " fill="#075D5F" transform="translate(91,60)"/>
<path d="M0 0 C1.98 0.99 1.98 0.99 4 2 C4.33 15.53 4.66 29.06 5 43 C5.66 43 6.32 43 7 43 C7.08706892 46.27066566 7.14041241 49.54103365 7.1875 52.8125 C7.22520508 54.2056543 7.22520508 54.2056543 7.26367188 55.62695312 C7.27333984 56.51962891 7.28300781 57.41230469 7.29296875 58.33203125 C7.3086792 59.15421143 7.32438965 59.9763916 7.34057617 60.82348633 C6.92566921 63.47502434 6.04470249 64.33263592 4 66 C3.34 65.67 2.68 65.34 2 65 C2.33 64.34 2.66 63.68 3 63 C3.07253125 61.1414661 3.07862102 59.28018872 3.0534668 57.42041016 C3.0398259 56.25224762 3.026185 55.08408508 3.01213074 53.88052368 C2.99136978 52.61284149 2.97060883 51.3451593 2.94921875 50.0390625 C2.9303511 48.74181244 2.91148346 47.44456238 2.89204407 46.10800171 C2.85103453 43.359039 2.80581204 40.61018152 2.75805664 37.86132812 C2.69754357 34.34192476 2.65058918 30.82248639 2.60722637 27.30283546 C2.56330704 23.94392532 2.50541754 20.58528953 2.44921875 17.2265625 C2.43453049 15.96292877 2.41984222 14.69929504 2.40470886 13.39736938 C2.38161148 12.22290253 2.3585141 11.04843567 2.3347168 9.83837891 C2.31837692 8.8051651 2.30203705 7.77195129 2.28520203 6.70742798 C1.99950159 3.99526859 1.38982445 2.3210599 0 0 Z " fill="#15767B" transform="translate(89,60)"/>
<path d="M0 0 C1.40907283 2.81814566 0.50872691 4.17277204 -0.4375 7.125 C-0.72496094 8.03507812 -1.01242188 8.94515625 -1.30859375 9.8828125 C-1.65083984 10.93082031 -1.65083984 10.93082031 -2 12 C-1.01 11.67 -0.02 11.34 1 11 C2.62933154 10.98439237 4.25973097 11.03234896 5.88671875 11.12109375 C6.82451172 11.16943359 7.76230469 11.21777344 8.72851562 11.26757812 C10.19321289 11.35168945 10.19321289 11.35168945 11.6875 11.4375 C12.67556641 11.48970703 13.66363281 11.54191406 14.68164062 11.59570312 C17.12141676 11.72535306 19.56078105 11.86031742 22 12 C21.67 12.66 21.34 13.32 21 14 C7.635 14.495 7.635 14.495 -6 15 C-4.33745315 8.34981259 -3.36041695 5.37666712 0 0 Z " fill="#066065" transform="translate(64,45)"/>
<path d="M0 0 C0.33 0 0.66 0 1 0 C1 8.91 1 17.82 1 27 C0.01 27 -0.98 27 -2 27 C-2.05784708 22.87505849 -2.09354407 18.75022056 -2.125 14.625 C-2.14175781 13.449375 -2.15851563 12.27375 -2.17578125 11.0625 C-2.18222656 9.94101563 -2.18867187 8.81953125 -2.1953125 7.6640625 C-2.20578613 6.62717285 -2.21625977 5.5902832 -2.22705078 4.52197266 C-2 2 -2 2 0 0 Z " fill="#188D95" transform="translate(98,76)"/>
<path d="M0 0 C2.32461782 1.04082888 4.63218091 2.10541145 6.9375 3.1875 C7.9265332 3.62545898 7.9265332 3.62545898 8.93554688 4.07226562 C10.83984375 4.98046875 10.83984375 4.98046875 14 7 C14.94140625 9.73828125 14.94140625 9.73828125 15 12 C12.44931155 14.35448165 11.28982642 14.98327924 7.75 15.1875 C6.8425 15.125625 5.935 15.06375 5 15 C4.67 14.34 4.34 13.68 4 13 C5.65 12.67 7.3 12.34 9 12 C9.2981424 8.2236068 9.2981424 8.2236068 8 6 C6.11235097 5.31527335 6.11235097 5.31527335 3.9375 4.875 C3.20402344 4.70742187 2.47054687 4.53984375 1.71484375 4.3671875 C1.14894531 4.24601562 0.58304688 4.12484375 0 4 C0 2.68 0 1.36 0 0 Z " fill="#127277" transform="translate(52,90)"/>
<path d="M0 0 C0.99 0 1.98 0 3 0 C3.086985 3.77068832 3.14038579 7.54111932 3.1875 11.3125 C3.21263672 12.38435547 3.23777344 13.45621094 3.26367188 14.56054688 C3.27333984 15.58857422 3.28300781 16.61660156 3.29296875 17.67578125 C3.3086792 18.62364502 3.32438965 19.57150879 3.34057617 20.5480957 C3 23 3 23 0 26 C0 17.42 0 8.84 0 0 Z " fill="#35B6BE" transform="translate(96,103)"/>
<path d="M0 0 C3 0.3125 3 0.3125 6 1 C6.33 1.66 6.66 2.32 7 3 C5.02 2.34 3.04 1.68 1 1 C1 2.98 1 4.96 1 7 C13.59957516 8.54280689 13.59957516 8.54280689 25 4 C25 5.32 25 6.64 25 8 C17.34294662 11.05936444 10.11504846 11.79828563 2 10 C0.13671875 8.640625 0.13671875 8.640625 -1 7 C-1.25 3.875 -1.25 3.875 -1 1 C-0.67 0.67 -0.34 0.34 0 0 Z " fill="#146F74" transform="translate(48,101)"/>
<path d="M0 0 C0 0.33 0 0.66 0 1 C-4.455 2.485 -4.455 2.485 -9 4 C-9 4.66 -9 5.32 -9 6 C-7.62667716 6.62867668 -6.25124167 7.25273891 -4.875 7.875 C-4.05644531 8.24625 -3.23789062 8.6175 -2.39453125 9 C0.12639876 10.12113463 0.12639876 10.12113463 3.4375 10.875 C6 12 6 12 7.375 14.625 C8.10100932 18.54545035 8.13729452 22.01845901 8 26 C7.34 26 6.68 26 6 26 C6.020625 24.9275 6.04125 23.855 6.0625 22.75 C6.13118564 18.7194466 6.13118564 18.7194466 5 15 C3.35233918 14.28765455 1.68124769 13.62899 0 13 C-1.76204974 12.257124 -3.51246653 11.48603709 -5.25 10.6875 C-6.12140625 10.29949219 -6.9928125 9.91148438 -7.890625 9.51171875 C-10 8 -10 8 -10.796875 5.33203125 C-10.86390625 4.56246094 -10.9309375 3.79289062 -11 3 C-7.48550811 -0.37391222 -4.73940561 -0.27342725 0 0 Z " fill="#187274" transform="translate(67,78)"/>
<path d="M0 0 C0.33 0 0.66 0 1 0 C1 1.98 1 3.96 1 6 C-2.16625928 7.05541976 -3.85476936 6.9777654 -7.125 6.625 C-8.01445313 6.53476563 -8.90390625 6.44453125 -9.8203125 6.3515625 C-12 6 -12 6 -13 5 C-14.34747084 4.76924918 -15.70377565 4.58846937 -17.0625 4.4375 C-18.361875 4.293125 -19.66125 4.14875 -21 4 C-21.33 4.99 -21.66 5.98 -22 7 C-22.33 5.68 -22.66 4.36 -23 3 C-15.41 2.67 -7.82 2.34 0 2 C0 1.34 0 0.68 0 0 Z " fill="#25898E" transform="translate(95,123)"/>
<path d="M0 0 C1.9375 0.375 1.9375 0.375 4 1 C5.56474126 4.12948252 5.22569951 7.44255602 5.25 10.875 C5.270625 11.59558594 5.29125 12.31617187 5.3125 13.05859375 C5.34768385 17.83480098 5.00858715 18.98855046 2 23 C2 16.07 2 9.14 2 2 C1.34 2 0.68 2 0 2 C0 1.34 0 0.68 0 0 Z " fill="#004144" transform="translate(91,60)"/>
<path d="M0 0 C8.58 0 17.16 0 26 0 C26 0.66 26 1.32 26 2 C25.3294458 2.02505615 24.6588916 2.0501123 23.96801758 2.07592773 C20.9160041 2.19230801 17.86426742 2.31484348 14.8125 2.4375 C13.75740234 2.47681641 12.70230469 2.51613281 11.61523438 2.55664062 C10.08286133 2.61948242 10.08286133 2.61948242 8.51953125 2.68359375 C7.11344604 2.73858032 7.11344604 2.73858032 5.67895508 2.79467773 C3.04885018 2.99625599 0.57233586 3.42678321 -2 4 C-1.34 2.68 -0.68 1.36 0 0 Z " fill="#1D7E81" transform="translate(32,59)"/>
<path d="M0 0 C0.99 0.33 1.98 0.66 3 1 C1.3972936 8.44876881 -1.14160455 13.94625163 -7 19 C-7.66 19 -8.32 19 -9 19 C-9 18.01 -9 17.02 -9 16 C-8.06027344 15.6596875 -8.06027344 15.6596875 -7.1015625 15.3125 C-4.29410713 13.55914497 -4.1392636 12.16755036 -3.375 9 C-2.18532819 4.18532819 -2.18532819 4.18532819 0 2 C0 1.34 0 0.68 0 0 Z " fill="#42C0C5" transform="translate(120,129)"/>
<path d="M0 0 C6.27 0 12.54 0 19 0 C19 0.33 19 0.66 19 1 C14.38 1 9.76 1 5 1 C4.67 3.64 4.34 6.28 4 9 C4.99 9.33 5.98 9.66 7 10 C6.01 10.33 5.02 10.66 4 11 C0 4.5 0 4.5 0 0 Z " fill="#41BBC7" transform="translate(73,132)"/>
<path d="M0 0 C1.98 0 3.96 0 6 0 C3.02093625 3.64107792 -0.50222181 4.73172012 -5.109375 5.2265625 C-10.73843177 5.44007845 -14.85525035 4.24498166 -20 2 C-20 1.67 -20 1.34 -20 1 C-18.33388095 0.957279 -16.66617115 0.95936168 -15 1 C-14.67 1.33 -14.34 1.66 -14 2 C-11.81707226 2.23481693 -9.62796826 2.41363323 -7.4375 2.5625 C-5.64119141 2.68818359 -5.64119141 2.68818359 -3.80859375 2.81640625 C-2.88175781 2.87699219 -1.95492187 2.93757812 -1 3 C-0.67 2.01 -0.34 1.02 0 0 Z " fill="#52B9BE" transform="translate(105,148)"/>
<path d="M0 0 C0.99 0.33 1.98 0.66 3 1 C-3.44736842 7.63157895 -3.44736842 7.63157895 -7 10 C-9.15234375 9.6015625 -9.15234375 9.6015625 -11 9 C-9.54405245 7.68485396 -8.08516421 6.37296283 -6.625 5.0625 C-5.81289062 4.33160156 -5.00078125 3.60070313 -4.1640625 2.84765625 C-2 1 -2 1 0 0 Z " fill="#096463" transform="translate(76,34)"/>
<path d="M0 0 C1.98 0.66 3.96 1.32 6 2 C5.67 8.27 5.34 14.54 5 21 C4.67 21 4.34 21 4 21 C3.93941406 19.94039062 3.87882812 18.88078125 3.81640625 17.7890625 C3.73199873 16.40102779 3.64735083 15.01300768 3.5625 13.625 C3.52318359 12.92632812 3.48386719 12.22765625 3.44335938 11.5078125 C3.25719866 7.62639508 3.25719866 7.62639508 2 4 C0.68 4 -0.64 4 -2 4 C-1.34 2.68 -0.68 1.36 0 0 Z " fill="#065F65" transform="translate(92,57)"/>
<path d="M0 0 C-0.33 0.99 -0.66 1.98 -1 3 C-7.27 3 -13.54 3 -20 3 C-20 2.34 -20 1.68 -20 1 C-17.22922802 0.83225597 -14.45839073 0.66576064 -11.6875 0.5 C-10.90181641 0.45230469 -10.11613281 0.40460938 -9.30664062 0.35546875 C-8.54931641 0.31035156 -7.79199219 0.26523438 -7.01171875 0.21875 C-6.31522217 0.17685547 -5.61872559 0.13496094 -4.90112305 0.09179688 C-3.26903034 0.01299029 -1.63399421 0 0 0 Z " fill="#125B61" transform="translate(92,123)"/>
<path d="M0 0 C-6.03225548 4.52851271 -11.55955565 6.08362174 -19 7 C-19.33 6.34 -19.66 5.68 -20 5 C-18.98679687 4.83564453 -18.98679687 4.83564453 -17.953125 4.66796875 C-16.61507812 4.43013672 -16.61507812 4.43013672 -15.25 4.1875 C-14.36828125 4.03667969 -13.4865625 3.88585937 -12.578125 3.73046875 C-9.78480766 2.93902884 -8.24540222 1.79726522 -6 0 C-3 -1 -3 -1 0 0 Z " fill="#248B8C" transform="translate(142,123)"/>
<path d="M0 0 C6.57868441 -0.71507439 11.51872036 1.35859045 17 5 C18.796875 7.171875 18.796875 7.171875 20 9 C17.08482708 7.92598892 15.22189824 7.22189824 13 5 C10.93125966 4.3574765 10.93125966 4.3574765 9 4 C9 3.34 9 2.68 9 2 C8.2575 2.226875 7.515 2.45375 6.75 2.6875 C4 3 4 3 1.6875 1.5625 C1.130625 1.046875 0.57375 0.53125 0 0 Z " fill="#26898A" transform="translate(125,66)"/>
<path d="M0 0 C2.64 0 5.28 0 8 0 C8.33 0.66 8.66 1.32 9 2 C5.35206816 3.27253436 1.8063457 4.32829194 -2 5 C-1 2 -1 2 0 0 Z " fill="#2A9399" transform="translate(74,127)"/>
<path d="M0 0 C3.32643967 2.98232523 5.29152862 5.86370087 7 10 C6.67 10.66 6.34 11.32 6 12 C5.71125 11.360625 5.4225 10.72125 5.125 10.0625 C4.17176549 7.84793921 4.17176549 7.84793921 2 7 C1.26924352 4.6859378 0.59861742 2.35171131 0 0 Z M0 8 C2 9 2 9 2 9 Z " fill="#248B8D" transform="translate(146,76)"/>
<path d="M0 0 C0.66 0 1.32 0 2 0 C2.48828125 2.01822917 2.9765625 4.03645833 3.46484375 6.0546875 C3.94846992 8.0585657 3.94846992 8.0585657 5 10 C4.01 10 3.02 10 2 10 C-0.4294516 6.3558226 -0.16179575 4.28758728 0 0 Z " fill="#177779" transform="translate(47,80)"/>
<path d="M0 0 C1.66611905 -0.042721 3.33382885 -0.04063832 5 0 C5.33 0.33 5.66 0.66 6 1 C7.68183948 1.23287008 9.3712416 1.41264166 11.0625 1.5625 C11.98160156 1.64628906 12.90070313 1.73007813 13.84765625 1.81640625 C14.91306641 1.90728516 14.91306641 1.90728516 16 2 C16 2.33 16 2.66 16 3 C14.08404032 3.08133791 12.16708068 3.13934367 10.25 3.1875 C8.64898437 3.23970703 8.64898437 3.23970703 7.015625 3.29296875 C3.69972145 2.97082786 2.40983327 2.22851086 0 0 Z " fill="#45BFBF" transform="translate(85,149)"/>
<path d="M0 0 C0.33 0 0.66 0 1 0 C1.37211538 7.56634615 1.37211538 7.56634615 -0.51171875 9.76171875 C-1.00285156 10.17035156 -1.49398437 10.57898438 -2 11 C-1.85957123 9.35369672 -1.71250671 7.70795821 -1.5625 6.0625 C-1.48128906 5.14597656 -1.40007812 4.22945313 -1.31640625 3.28515625 C-1 1 -1 1 0 0 Z " fill="#30B9C0" transform="translate(98,118)"/>
<path d="M0 0 C0.66 0.33 1.32 0.66 2 1 C1.04882866 2.1725131 0.08882991 3.33787015 -0.875 4.5 C-1.40867187 5.1496875 -1.94234375 5.799375 -2.4921875 6.46875 C-2.98976563 6.9740625 -3.48734375 7.479375 -4 8 C-4.66 8 -5.32 8 -6 8 C-6 7.01 -6 6.02 -6 5 C-5.38125 4.731875 -4.7625 4.46375 -4.125 4.1875 C-1.7004767 3.04443152 -1.7004767 3.04443152 0 0 Z " fill="#4FB9BD" transform="translate(117,140)"/>
<path d="M0 0 C0.33 1.32 0.66 2.64 1 4 C-2.21451269 5.60725635 -5.43612536 5.05748185 -9 5 C-9 4.67 -9 4.34 -9 4 C-7.88625 3.71125 -6.7725 3.4225 -5.625 3.125 C-1.99708908 2.30758671 -1.99708908 2.30758671 0 0 Z " fill="#16686A" transform="translate(72,105)"/>
<path d="M0 0 C0.66 0.33 1.32 0.66 2 1 C0.02 3.97 0.02 3.97 -2 7 C-3.32 6.67 -4.64 6.34 -6 6 C-4.02 4.02 -2.04 2.04 0 0 Z " fill="#105559" transform="translate(71,37)"/>
</svg>
